<svg width="86" height="15" viewBox="0 0 86 15" fill="none" xmlns="http://www.w3.org/2000/svg">
<path d="M6.91809 11.8726L3.67063 14.2822C3.50972 14.4101 3.33418 14.4704 3.14401 14.463C2.95385 14.4562 2.78562 14.403 2.63934 14.3035C2.49306 14.204 2.37984 14.069 2.29968 13.8984C2.21893 13.7278 2.21513 13.543 2.28827 13.344L3.53898 9.39909L0.357346 7.20275C0.181807 7.08902 0.072096 6.93976 0.0282115 6.75495C-0.0156731 6.57015 -0.00835891 6.39956 0.0501538 6.24319C0.108667 6.08681 0.211064 5.94807 0.357346 5.82695C0.503627 5.7064 0.679166 5.64612 0.88396 5.64612H4.81163L6.08428 1.55198C6.15742 1.35296 6.27094 1.2 6.42482 1.09309C6.57813 0.986761 6.74255 0.933594 6.91809 0.933594C7.09362 0.933594 7.25805 0.986761 7.41135 1.09309C7.56524 1.2 7.67875 1.35296 7.75189 1.55198L9.02454 5.64612H12.9522C13.157 5.64612 13.3325 5.7064 13.4788 5.82695C13.6251 5.94807 13.7275 6.08681 13.786 6.24319C13.8445 6.39956 13.8518 6.57015 13.808 6.75495C13.7641 6.93976 13.6544 7.08902 13.4788 7.20275L10.2972 9.39909L11.5479 13.344C11.621 13.543 11.6175 13.7278 11.5374 13.8984C11.4566 14.069 11.3431 14.204 11.1968 14.3035C11.0505 14.403 10.8823 14.4562 10.6922 14.463C10.502 14.4704 10.3265 14.4101 10.1655 14.2822L6.91809 11.8726Z" fill="#DFCD26"/>
<path d="M24.754 11.8726L21.5066 14.2822C21.3457 14.4101 21.1701 14.4704 20.98 14.463C20.7898 14.4562 20.6216 14.403 20.4753 14.3035C20.329 14.204 20.2158 14.069 20.1356 13.8984C20.0549 13.7278 20.0511 13.543 20.1242 13.344L21.3749 9.39909L18.1933 7.20275C18.0177 7.08902 17.908 6.93976 17.8641 6.75495C17.8203 6.57015 17.8276 6.39956 17.8861 6.24319C17.9446 6.08681 18.047 5.94807 18.1933 5.82695C18.3396 5.7064 18.5151 5.64612 18.7199 5.64612H22.6476L23.9202 1.55198C23.9934 1.35296 24.1069 1.2 24.2608 1.09309C24.4141 0.986761 24.5785 0.933594 24.754 0.933594C24.9296 0.933594 25.094 0.986761 25.2473 1.09309C25.4012 1.2 25.5147 1.35296 25.5878 1.55198L26.8605 5.64612H30.7882C30.9929 5.64612 31.1685 5.7064 31.3148 5.82695C31.461 5.94807 31.5634 6.08681 31.622 6.24319C31.6805 6.39956 31.6878 6.57015 31.6439 6.75495C31.6 6.93976 31.4903 7.08902 31.3148 7.20275L28.1331 9.39909L29.3838 13.344C29.457 13.543 29.4535 13.7278 29.3733 13.8984C29.2926 14.069 29.1791 14.204 29.0328 14.3035C28.8865 14.403 28.7183 14.4562 28.5281 14.463C28.3379 14.4704 28.1624 14.4101 28.0015 14.2822L24.754 11.8726Z" fill="#DFCD26"/>
<path d="M42.59 11.8726L39.3425 14.2822C39.1816 14.4101 39.0061 14.4704 38.8159 14.463C38.6257 14.4562 38.4575 14.403 38.3112 14.3035C38.1649 14.204 38.0517 14.069 37.9716 13.8984C37.8908 13.7278 37.887 13.543 37.9601 13.344L39.2109 9.39909L36.0292 7.20275C35.8537 7.08902 35.744 6.93976 35.7001 6.75495C35.6562 6.57015 35.6635 6.39956 35.722 6.24319C35.7805 6.08681 35.8829 5.94807 36.0292 5.82695C36.1755 5.7064 36.351 5.64612 36.5558 5.64612H40.4835L41.7562 1.55198C41.8293 1.35296 41.9428 1.2 42.0967 1.09309C42.25 0.986761 42.4144 0.933594 42.59 0.933594C42.7655 0.933594 42.9299 0.986761 43.0832 1.09309C43.2371 1.2 43.3506 1.35296 43.4238 1.55198L44.6964 5.64612H48.6241C48.8289 5.64612 49.0044 5.7064 49.1507 5.82695C49.297 5.94807 49.3994 6.08681 49.4579 6.24319C49.5164 6.39956 49.5237 6.57015 49.4798 6.75495C49.436 6.93976 49.3262 7.08902 49.1507 7.20275L45.9691 9.39909L47.2198 13.344C47.2929 13.543 47.2894 13.7278 47.2093 13.8984C47.1285 14.069 47.015 14.204 46.8687 14.3035C46.7224 14.403 46.5542 14.4562 46.364 14.463C46.1739 14.4704 45.9983 14.4101 45.8374 14.2822L42.59 11.8726Z" fill="#DFCD26"/>
<path d="M60.4259 11.8726L57.1784 14.2822C57.0175 14.4101 56.842 14.4704 56.6518 14.463C56.4617 14.4562 56.2934 14.403 56.1472 14.3035C56.0009 14.204 55.8877 14.069 55.8075 13.8984C55.7267 13.7278 55.7229 13.543 55.7961 13.344L57.0468 9.39909L53.8652 7.20275C53.6896 7.08902 53.5799 6.93976 53.536 6.75495C53.4921 6.57015 53.4995 6.39956 53.558 6.24319C53.6165 6.08681 53.7189 5.94807 53.8652 5.82695C54.0114 5.7064 54.187 5.64612 54.3918 5.64612H58.3194L59.5921 1.55198C59.6652 1.35296 59.7787 1.2 59.9326 1.09309C60.0859 0.986761 60.2504 0.933594 60.4259 0.933594C60.6014 0.933594 60.7659 0.986761 60.9192 1.09309C61.0731 1.2 61.1866 1.35296 61.2597 1.55198L62.5324 5.64612H66.46C66.6648 5.64612 66.8404 5.7064 66.9866 5.82695C67.1329 5.94807 67.2353 6.08681 67.2938 6.24319C67.3523 6.39956 67.3597 6.57015 67.3158 6.75495C67.2719 6.93976 67.1622 7.08902 66.9866 7.20275L63.805 9.39909L65.0557 13.344C65.1289 13.543 65.1253 13.7278 65.0452 13.8984C64.9644 14.069 64.8509 14.204 64.7046 14.3035C64.5584 14.403 64.3901 14.4562 64.2 14.463C64.0098 14.4704 63.8343 14.4101 63.6734 14.2822L60.4259 11.8726Z" fill="#DFCD26"/>
<path d="M78.2618 11.8726L75.0144 14.2822C74.8535 14.4101 74.6779 14.4704 74.4878 14.463C74.2976 14.4562 74.1294 14.403 73.9831 14.3035C73.8368 14.204 73.7236 14.069 73.6434 13.8984C73.5627 13.7278 73.5589 13.543 73.632 13.344L74.8827 9.39909L71.7011 7.20275C71.5256 7.08902 71.4158 6.93976 71.372 6.75495C71.3281 6.57015 71.3354 6.39956 71.3939 6.24319C71.4524 6.08681 71.5548 5.94807 71.7011 5.82695C71.8474 5.7064 72.0229 5.64612 72.2277 5.64612H76.1554L77.428 1.55198C77.5012 1.35296 77.6147 1.2 77.7686 1.09309C77.9219 0.986761 78.0863 0.933594 78.2618 0.933594C78.4374 0.933594 78.6018 0.986761 78.7551 1.09309C78.909 1.2 79.0225 1.35296 79.0956 1.55198L80.3683 5.64612H84.296C84.5008 5.64612 84.6763 5.7064 84.8226 5.82695C84.9689 5.94807 85.0713 6.08681 85.1298 6.24319C85.1883 6.39956 85.1956 6.57015 85.1517 6.75495C85.1078 6.93976 84.9981 7.08902 84.8226 7.20275L81.6409 9.39909L82.8917 13.344C82.9648 13.543 82.9613 13.7278 82.8811 13.8984C82.8004 14.069 82.6869 14.204 82.5406 14.3035C82.3943 14.403 82.2261 14.4562 82.0359 14.463C81.8457 14.4704 81.6702 14.4101 81.5093 14.2822L78.2618 11.8726Z" fill="#DFCD26"/>
</svg>
