<svg width="43" height="42" viewBox="0 0 43 42" fill="none" xmlns="http://www.w3.org/2000/svg">
<path d="M29.1563 23.1349H20.3121C20.2185 23.1407 20.125 23.1216 20.0383 23.0787C19.9516 23.0359 19.8739 22.9705 19.8109 22.8872C19.7962 22.8872 19.7962 22.8695 19.7814 22.8518C19.7121 22.7762 19.6575 22.683 19.6218 22.579C19.5862 22.475 19.5702 22.3628 19.5751 22.2504V11.6374C19.5751 11.4028 19.6527 11.1778 19.791 11.012C19.9292 10.8461 20.1166 10.7529 20.3121 10.7529C20.5076 10.7529 20.695 10.8461 20.8333 11.012C20.9715 11.1778 21.0491 11.4028 21.0491 11.6374V21.366H29.1563C29.3518 21.366 29.5393 21.4592 29.6775 21.6251C29.8157 21.7909 29.8934 22.0159 29.8934 22.2504C29.8934 22.485 29.8157 22.71 29.6775 22.8758C29.5393 23.0417 29.3518 23.1349 29.1563 23.1349Z" stroke="#21787D" stroke-width="1.5"/>
<path fill-rule="evenodd" clip-rule="evenodd" d="M10.1108 37.9787C13.482 40.2313 17.4455 41.4336 21.5 41.4336C23.6932 41.4312 25.85 41.0777 27.895 40.4044C27.4415 39.8564 27.0497 39.2555 26.7303 38.6123C23.8734 39.4575 20.8442 39.6005 17.9033 39.0155C14.327 38.3042 11.042 36.5483 8.46366 33.9699C5.88532 31.3916 4.12945 28.1066 3.41808 24.5303C2.70672 20.954 3.07182 17.2472 4.46721 13.8784C5.8626 10.5096 8.22561 7.63028 11.2574 5.60449C14.2892 3.57869 17.8537 2.49743 21.5 2.49743C26.3879 2.50289 31.074 4.44702 34.5303 7.90329C37.9866 11.3596 39.9307 16.0457 39.9362 20.9336C39.9362 22.714 39.6784 24.4749 39.1787 26.1639C39.8219 26.4833 40.4228 26.8751 40.9708 27.3286C41.6441 25.2836 41.9976 23.1268 42 20.9336C42 16.8791 40.7977 12.9156 38.5451 9.54441C36.2926 6.1732 33.0909 3.54567 29.345 1.99407C25.5991 0.442476 21.4773 0.0365078 17.5007 0.827505C13.524 1.6185 9.87129 3.57094 7.00432 6.43791C4.13734 9.30489 2.18491 12.9576 1.39391 16.9342C0.602914 20.9109 1.00888 25.0327 2.56048 28.7786C4.11207 32.5245 6.73961 35.7262 10.1108 37.9787Z" fill="#21787D"/>
<path d="M21.5 41.4336V41.6836H21.5003L21.5 41.4336ZM27.895 40.4044L27.9732 40.6418L28.3212 40.5272L28.0876 40.245L27.895 40.4044ZM26.7303 38.6123L26.9542 38.5011L26.8608 38.313L26.6593 38.3726L26.7303 38.6123ZM17.9033 39.0155L17.8545 39.2607L17.9033 39.0155ZM8.46366 33.9699L8.64044 33.7932L8.46366 33.9699ZM3.41808 24.5303L3.66328 24.4815L3.41808 24.5303ZM11.2574 5.60449L11.3963 5.81235L11.2574 5.60449ZM21.5 2.49743L21.5003 2.24743H21.5V2.49743ZM39.9362 20.9336H40.1862V20.9333L39.9362 20.9336ZM39.1787 26.1639L38.939 26.0929L38.8794 26.2943L39.0675 26.3878L39.1787 26.1639ZM40.9708 27.3286L40.8114 27.5212L41.0936 27.7548L41.2082 27.4068L40.9708 27.3286ZM42 20.9336L42.25 20.9339V20.9336H42ZM29.345 1.99407L29.4407 1.7631L29.345 1.99407ZM17.5007 0.827505L17.4519 0.582308L17.5007 0.827505ZM7.00432 6.43791L7.1811 6.61469L7.00432 6.43791ZM1.39391 16.9342L1.14871 16.8855L1.39391 16.9342ZM2.56048 28.7786L2.32951 28.8743L2.56048 28.7786ZM21.5 41.1836C17.4949 41.1836 13.5798 39.9959 10.2497 37.7709L9.97192 38.1866C13.3842 40.4666 17.396 41.6836 21.5 41.6836V41.1836ZM27.8168 40.1669C25.7967 40.832 23.6663 41.1812 21.4997 41.1836L21.5003 41.6836C23.7202 41.6811 25.9032 41.3234 27.9732 40.6418L27.8168 40.1669ZM28.0876 40.245C27.6462 39.7117 27.265 39.1269 26.9542 38.5011L26.5064 38.7235C26.8344 39.3841 27.2368 40.0011 27.7024 40.5638L28.0876 40.245ZM17.8545 39.2607C20.8353 39.8536 23.9056 39.7087 26.8012 38.852L26.6593 38.3726C23.8412 39.2063 20.8531 39.3474 17.9521 38.7703L17.8545 39.2607ZM8.28689 34.1467C10.9002 36.76 14.2298 38.5397 17.8545 39.2607L17.9521 38.7703C14.4243 38.0686 11.1838 36.3365 8.64044 33.7932L8.28689 34.1467ZM3.17289 24.5791C3.8939 28.2038 5.67358 31.5334 8.28689 34.1467L8.64044 33.7932C6.09706 31.2498 4.365 28.0093 3.66328 24.4815L3.17289 24.5791ZM4.23624 13.7827C2.82192 17.1972 2.45188 20.9543 3.17289 24.5791L3.66328 24.4815C2.96156 20.9538 3.32171 17.2971 4.69818 13.9741L4.23624 13.7827ZM11.1185 5.39662C8.0456 7.44988 5.65055 10.3683 4.23624 13.7827L4.69818 13.9741C6.07464 10.651 8.40561 7.81067 11.3963 5.81235L11.1185 5.39662ZM21.5 2.24743C17.8042 2.24743 14.1914 3.34336 11.1185 5.39662L11.3963 5.81235C14.387 3.81403 17.9031 2.74743 21.5 2.74743V2.24743ZM34.7071 7.72651C31.204 4.22343 26.4544 2.25297 21.5003 2.24743L21.4997 2.74743C26.3214 2.75282 30.9441 4.67062 34.3535 8.08007L34.7071 7.72651ZM40.1862 20.9333C40.1806 15.9792 38.2102 11.2296 34.7071 7.72651L34.3535 8.08007C37.763 11.4895 39.6808 16.1122 39.6862 20.9339L40.1862 20.9333ZM39.4184 26.2348C39.9249 24.523 40.1862 22.7382 40.1862 20.9336H39.6862C39.6862 22.6899 39.4319 24.4269 38.939 26.0929L39.4184 26.2348ZM39.0675 26.3878C39.6933 26.6986 40.2781 27.0798 40.8114 27.5212L41.1302 27.136C40.5675 26.6704 39.9505 26.268 39.2899 25.9399L39.0675 26.3878ZM41.75 20.9333C41.7476 23.0999 41.3984 25.2303 40.7333 27.2504L41.2082 27.4068C41.8898 25.3368 42.2475 23.1538 42.25 20.9339L41.75 20.9333ZM38.3373 9.6833C40.5624 13.0134 41.75 16.9285 41.75 20.9336H42.25C42.25 16.8296 41.033 12.8178 38.753 9.40552L38.3373 9.6833ZM29.2493 2.22504C32.9495 3.75772 36.1122 6.35321 38.3373 9.6833L38.753 9.40552C36.473 5.9932 33.2322 3.33362 29.4407 1.7631L29.2493 2.22504ZM17.5494 1.0727C21.4775 0.29135 25.5491 0.692368 29.2493 2.22504L29.4407 1.7631C25.6491 0.192585 21.477 -0.218335 17.4519 0.582308L17.5494 1.0727ZM7.1811 6.61469C10.0131 3.78268 13.6213 1.85405 17.5494 1.0727L17.4519 0.582308C13.4268 1.38295 9.72948 3.3592 6.82754 6.26114L7.1811 6.61469ZM1.63911 16.983C2.42046 13.0549 4.34908 9.4467 7.1811 6.61469L6.82754 6.26114C3.9256 9.16307 1.94936 12.8604 1.14871 16.8855L1.63911 16.983ZM2.79145 28.6829C1.25877 24.9827 0.857757 20.9111 1.63911 16.983L1.14871 16.8855C0.348071 20.9106 0.758991 25.0827 2.32951 28.8743L2.79145 28.6829ZM10.2497 37.7709C6.91961 35.5458 4.32412 32.3831 2.79145 28.6829L2.32951 28.8743C3.90003 32.6658 6.5596 35.9065 9.97192 38.1866L10.2497 37.7709Z" fill="#21787D"/>
<path d="M29.8936 29.3281H32.9179C33.319 29.3281 33.7036 29.4874 33.9872 29.771C34.2708 30.0546 34.4301 30.4393 34.4301 30.8403V32.3525C34.4301 32.7536 34.2708 33.1382 33.9872 33.4218C33.7036 33.7054 33.319 33.8647 32.9179 33.8647H31.4057C31.0047 33.8647 30.6201 34.024 30.3365 34.3076C30.0529 34.5912 29.8936 34.9758 29.8936 35.3769V36.8891C29.8936 37.2901 30.0529 37.6747 30.3365 37.9583C30.6201 38.2419 31.0047 38.4012 31.4057 38.4012H34.4301" stroke="#21787D" stroke-width="2" stroke-linecap="round" stroke-linejoin="round"/>
<path d="M36.7178 29.3281V32.3525C36.7178 32.7536 36.8771 33.1382 37.1607 33.4218C37.4443 33.7054 37.8289 33.8647 38.23 33.8647H39.7421M41.2543 29.3281V38.4012" stroke="#21787D" stroke-width="2" stroke-linecap="round" stroke-linejoin="round"/>
</svg>
