<svg width="224" height="57" viewBox="0 0 224 57" fill="none" xmlns="http://www.w3.org/2000/svg">
<g filter="url(#filter0_i_1165_1825)">
<path d="M11.0494 24.5096H25.9237V30.0709H11.0494V24.5096ZM11.5791 37.2211H28.3954V42.959H4.47297V12.0629H27.8216V17.8007H11.5791V37.2211ZM29.8978 42.959L40.5349 29.0116L40.4025 32.8074L30.2067 19.2131H37.9308L44.3748 28.0847L41.4618 28.173L48.1265 19.2131H55.4533L45.2134 32.675V28.9675L55.8064 42.959H47.9941L41.2411 33.5136L44.11 33.9108L37.4011 42.959H29.8978ZM72.743 43.3121C70.7421 43.3121 68.9914 42.8707 67.4907 41.988C65.99 41.1052 64.813 39.7664 63.9597 37.9715C63.1358 36.1471 62.7239 33.852 62.7239 31.086C62.7239 28.2907 63.1211 25.9955 63.9156 24.2006C64.71 22.4057 65.8576 21.0669 67.3583 20.1841C68.859 19.3014 70.6539 18.86 72.743 18.86C74.9793 18.86 76.9802 19.3749 78.7457 20.4048C80.5406 21.4053 81.953 22.8177 82.9829 24.642C84.0422 26.4663 84.5718 28.6144 84.5718 31.086C84.5718 33.5872 84.0422 35.7499 82.9829 37.5742C81.953 39.3986 80.5406 40.811 78.7457 41.8114C76.9802 42.8119 74.9793 43.3121 72.743 43.3121ZM58.7074 51.5216V19.2131H65.2838V24.0682L65.1514 31.1302L65.5928 38.148V51.5216H58.7074ZM71.5513 37.6625C72.6989 37.6625 73.7141 37.3977 74.5968 36.868C75.509 36.3384 76.2299 35.5881 76.7595 34.617C77.3186 33.6166 77.5981 32.4396 77.5981 31.086C77.5981 29.7031 77.3186 28.5261 76.7595 27.5551C76.2299 26.584 75.509 25.8337 74.5968 25.3041C73.7141 24.7744 72.6989 24.5096 71.5513 24.5096C70.4038 24.5096 69.3739 24.7744 68.4617 25.3041C67.5495 25.8337 66.8286 26.584 66.299 27.5551C65.7693 28.5261 65.5045 29.7031 65.5045 31.086C65.5045 32.4396 65.7693 33.6166 66.299 34.617C66.8286 35.5881 67.5495 36.3384 68.4617 36.868C69.3739 37.3977 70.4038 37.6625 71.5513 37.6625ZM100.524 43.3121C97.8173 43.3121 95.4339 42.7824 93.3741 41.7231C91.3438 40.6638 89.7696 39.222 88.6514 37.3977C87.5333 35.5439 86.9742 33.44 86.9742 31.086C86.9742 28.7026 87.5186 26.5988 88.6073 24.7744C89.7254 22.9206 91.2408 21.4788 93.1534 20.449C95.0661 19.3897 97.2288 18.86 99.6416 18.86C101.966 18.86 104.055 19.3602 105.909 20.3607C107.792 21.3317 109.278 22.7441 110.367 24.5979C111.456 26.4222 112 28.6144 112 31.1743C112 31.4391 111.985 31.7481 111.956 32.1012C111.927 32.4249 111.897 32.7338 111.868 33.0281H92.5797V29.0116H108.248L105.6 30.2033C105.6 28.9675 105.35 27.8934 104.85 26.9813C104.35 26.0691 103.658 25.3629 102.775 24.8627C101.893 24.333 100.863 24.0682 99.6858 24.0682C98.5088 24.0682 97.4642 24.333 96.552 24.8627C95.6693 25.3629 94.9778 26.0838 94.4776 27.0254C93.9773 27.9376 93.7272 29.0263 93.7272 30.2916V31.3509C93.7272 32.6456 94.0068 33.7931 94.5658 34.7936C95.1543 35.7646 95.9635 36.5149 96.9934 37.0446C98.0527 37.5448 99.2885 37.7949 100.701 37.7949C101.966 37.7949 103.07 37.6037 104.011 37.2211C104.982 36.8386 105.865 36.2648 106.659 35.4998L110.323 39.4721C109.234 40.708 107.866 41.6643 106.218 42.3411C104.57 42.9884 102.672 43.3121 100.524 43.3121ZM116.143 42.959V19.2131H122.719V25.922L121.792 23.9799C122.499 22.3027 123.631 21.0375 125.191 20.1841C126.75 19.3014 128.648 18.86 130.885 18.86V25.2158C130.59 25.1864 130.326 25.1716 130.09 25.1716C129.855 25.1422 129.605 25.1275 129.34 25.1275C127.457 25.1275 125.927 25.6719 124.75 26.7606C123.602 27.8199 123.028 29.4824 123.028 31.7481V42.959H116.143ZM145.067 43.3121C142.271 43.3121 140.094 42.6059 138.534 41.1935C136.975 39.7517 136.195 37.6184 136.195 34.7936V13.9608H143.08V34.7053C143.08 35.7058 143.345 36.4855 143.875 37.0446C144.404 37.5742 145.125 37.8391 146.038 37.8391C147.126 37.8391 148.053 37.5448 148.818 36.9563L150.672 41.8114C149.966 42.3116 149.112 42.6942 148.112 42.959C147.141 43.1944 146.126 43.3121 145.067 43.3121ZM132.532 25.0392V19.7428H148.995V25.0392H132.532ZM162.085 43.3121C160.054 43.3121 158.097 43.0767 156.214 42.6059C154.36 42.1057 152.889 41.4877 151.801 40.7521L154.096 35.8087C155.184 36.4855 156.464 37.0446 157.936 37.486C159.436 37.8979 160.908 38.1039 162.349 38.1039C163.938 38.1039 165.056 37.9126 165.704 37.5301C166.381 37.1476 166.719 36.6179 166.719 35.9412C166.719 35.3821 166.454 34.9701 165.924 34.7053C165.424 34.4111 164.747 34.1904 163.894 34.0432C163.041 33.8961 162.099 33.749 161.069 33.6019C160.069 33.4548 159.054 33.2635 158.024 33.0281C156.994 32.7633 156.052 32.3807 155.199 31.8805C154.346 31.3803 153.654 30.7035 153.125 29.8502C152.624 28.9969 152.374 27.8935 152.374 26.5399C152.374 25.0392 152.801 23.7151 153.654 22.5675C154.537 21.42 155.802 20.5225 157.45 19.8752C159.098 19.1984 161.069 18.86 163.365 18.86C164.983 18.86 166.631 19.0366 168.308 19.3897C169.985 19.7428 171.383 20.2577 172.501 20.9345L170.206 25.8337C169.058 25.1569 167.896 24.7009 166.719 24.4655C165.571 24.2006 164.453 24.0682 163.365 24.0682C161.834 24.0682 160.716 24.2742 160.01 24.6861C159.304 25.0981 158.951 25.6277 158.951 26.2751C158.951 26.8636 159.201 27.305 159.701 27.5992C160.231 27.8934 160.922 28.1288 161.776 28.3054C162.629 28.4819 163.556 28.6438 164.556 28.7909C165.586 28.9086 166.616 29.0999 167.646 29.3647C168.676 29.6295 169.603 30.012 170.426 30.5123C171.28 30.9831 171.971 31.6451 172.501 32.4984C173.031 33.3223 173.295 34.4111 173.295 35.7646C173.295 37.2358 172.854 38.5453 171.971 39.6928C171.089 40.811 169.809 41.6937 168.131 42.3411C166.484 42.9884 164.468 43.3121 162.085 43.3121ZM179.706 43.3121C178.529 43.3121 177.514 42.9148 176.661 42.1204C175.837 41.2965 175.425 40.2519 175.425 38.9866C175.425 37.7214 175.837 36.7062 176.661 35.9412C177.514 35.1467 178.529 34.7494 179.706 34.7494C180.913 34.7494 181.928 35.1467 182.752 35.9412C183.576 36.7062 183.988 37.7214 183.988 38.9866C183.988 40.2519 183.576 41.2965 182.752 42.1204C181.928 42.9148 180.913 43.3121 179.706 43.3121ZM190.817 43.3121C189.64 43.3121 188.624 42.9148 187.771 42.1204C186.947 41.2965 186.535 40.2519 186.535 38.9866C186.535 37.7214 186.947 36.7062 187.771 35.9412C188.624 35.1467 189.64 34.7494 190.817 34.7494C192.023 34.7494 193.038 35.1467 193.862 35.9412C194.686 36.7062 195.098 37.7214 195.098 38.9866C195.098 40.2519 194.686 41.2965 193.862 42.1204C193.038 42.9148 192.023 43.3121 190.817 43.3121ZM201.927 43.3121C200.75 43.3121 199.735 42.9148 198.881 42.1204C198.057 41.2965 197.645 40.2519 197.645 38.9866C197.645 37.7214 198.057 36.7062 198.881 35.9412C199.735 35.1467 200.75 34.7494 201.927 34.7494C203.133 34.7494 204.148 35.1467 204.972 35.9412C205.796 36.7062 206.208 37.7214 206.208 38.9866C206.208 40.2519 205.796 41.2965 204.972 42.1204C204.148 42.9148 203.133 43.3121 201.927 43.3121Z" fill="#267A95"/>
<path d="M5 55L206.844 47M5 53.2787L207 47.3425" stroke="#267A95" stroke-width="2.46697" stroke-linecap="square"/>
</g>
<defs>
<filter id="filter0_i_1165_1825" x="3.71875" y="12.0625" width="204.551" height="48.2188" filterUnits="userSpaceOnUse" color-interpolation-filters="sRGB">
<feFlood flood-opacity="0" result="BackgroundImageFix"/>
<feBlend mode="normal" in="SourceGraphic" in2="BackgroundImageFix" result="shape"/>
<feColorMatrix in="SourceAlpha" type="matrix" values="0 0 0 0 0 0 0 0 0 0 0 0 0 0 0 0 0 0 127 0" result="hardAlpha"/>
<feOffset dy="4"/>
<feGaussianBlur stdDeviation="2"/>
<feComposite in2="hardAlpha" operator="arithmetic" k2="-1" k3="1"/>
<feColorMatrix type="matrix" values="0 0 0 0 0 0 0 0 0 0 0 0 0 0 0 0 0 0 0.25 0"/>
<feBlend mode="normal" in2="shape" result="effect1_innerShadow_1165_1825"/>
</filter>
</defs>
</svg>
