<svg width="39" height="38" viewBox="0 0 39 38" fill="none" xmlns="http://www.w3.org/2000/svg">
<path d="M26.8671 37.0604V22.718H31.7546L32.4857 17.1425H26.8671V13.5847C26.8671 11.9705 27.3238 10.869 29.6785 10.869H32.6826V5.88231C31.2283 5.73066 29.7667 5.65712 28.3042 5.66201C23.974 5.66201 21.0097 8.26036 21.0097 13.0329V17.1425H16.1117V22.718H21.0097V37.0604H2.98068C2.42506 37.0604 1.89221 36.8435 1.49933 36.4574C1.10646 36.0713 0.885742 35.5476 0.885742 35.0015V2.05891C0.885742 1.51285 1.10646 0.989162 1.49933 0.603041C1.89221 0.21692 2.42506 0 2.98068 0H36.4996C37.0552 0 37.5881 0.21692 37.981 0.603041C38.3738 0.989162 38.5945 1.51285 38.5945 2.05891V35.0015C38.5945 35.5476 38.3738 36.0713 37.981 36.4574C37.5881 36.8435 37.0552 37.0604 36.4996 37.0604H26.8671Z" fill="#E3F8F5"/>
</svg>
