<svg width="32" height="31" viewBox="0 0 32 31" fill="none" xmlns="http://www.w3.org/2000/svg">
<path d="M31.9083 15.3861C31.9083 6.88866 24.8991 0 16.253 0C7.60683 0 0.597656 6.88854 0.597656 15.3861C0.597656 23.0657 6.32261 29.4311 13.8068 30.5853V19.8337H9.83184V15.3861H13.8068V11.9964C13.8068 8.14022 16.1441 6.01021 19.72 6.01021C21.4329 6.01021 23.2245 6.31072 23.2245 6.31072V10.0971H21.2504C19.3055 10.0971 18.6991 11.2832 18.6991 12.5V15.3861H23.041L22.3469 19.8337H18.6991V30.5853C26.1833 29.4311 31.9083 23.0658 31.9083 15.3861Z" fill="#1877F2"/>
<path d="M22.3471 19.8342L23.0412 15.3867H18.6993V12.5006C18.6993 11.2836 19.3058 10.0977 21.2506 10.0977H23.2247V6.31125C23.2247 6.31125 21.4331 6.01074 19.7202 6.01074C16.1443 6.01074 13.807 8.14076 13.807 11.9969V15.3867H9.83203V19.8342H13.807V30.5859C14.6162 30.7105 15.4341 30.773 16.2532 30.7728C17.0722 30.773 17.8901 30.7105 18.6993 30.5859V19.8342H22.3471Z" fill="white"/>
</svg>
