<svg width="41" height="39" viewBox="0 0 41 39" fill="none" xmlns="http://www.w3.org/2000/svg">
<path d="M20.4429 24.1455C19.5086 24.1452 18.5955 23.8726 17.8188 23.3622C17.0422 22.8519 16.437 22.1266 16.0797 21.2782C15.7224 20.4299 15.6291 19.4964 15.8116 18.5959C15.9941 17.6954 16.4441 16.8683 17.1049 16.2192C17.7656 15.57 18.6074 15.128 19.5237 14.949C20.44 14.77 21.3897 14.8621 22.2528 15.2135C23.1159 15.565 23.8536 16.1601 24.3726 16.9235C24.8916 17.687 25.1686 18.5846 25.1686 19.5027C25.1677 20.7341 24.6695 21.9147 23.7834 22.7853C22.8972 23.6558 21.6958 24.1451 20.4429 24.1455ZM31.4877 27.7142C31.2472 28.3132 30.8841 28.8572 30.4208 29.3126C29.9575 29.7679 29.4039 30.1248 28.7945 30.3611C26.9346 31.0827 22.5064 30.9208 20.4429 30.9208C18.3793 30.9208 13.9555 31.0888 12.0904 30.3611C11.4809 30.1248 10.9274 29.7679 10.4641 29.3126C10.0008 28.8572 9.63763 28.3132 9.39714 27.7142C8.66383 25.8863 8.82767 21.5299 8.82767 19.5036C8.82767 17.4773 8.66383 13.1261 9.40068 11.2921C9.64117 10.6931 10.0043 10.1491 10.4676 9.69379C10.9309 9.23846 11.4845 8.88155 12.0939 8.6452C13.9538 7.92363 18.382 8.08552 20.4464 8.08552C22.5108 8.08552 26.9328 7.91753 28.798 8.6452C29.4075 8.88155 29.961 9.23846 30.4243 9.69379C30.8876 10.1491 31.2508 10.6931 31.4912 11.2921C32.2308 13.12 32.0607 17.4764 32.0607 19.5027C32.0607 21.5291 32.2308 25.8794 31.4912 27.7133L31.4877 27.7142ZM20.4429 12.3653C19.0065 12.3653 17.6024 12.7839 16.4082 13.5682C15.2139 14.3525 14.2831 15.4672 13.7334 16.7714C13.1837 18.0756 13.0399 19.5107 13.3201 20.8952C13.6004 22.2797 14.292 23.5515 15.3077 24.5496C16.3233 25.5478 17.6173 26.2276 19.0261 26.503C20.4348 26.7784 21.895 26.637 23.222 26.0968C24.549 25.5566 25.6832 24.6418 26.4812 23.4681C27.2792 22.2943 27.7051 20.9144 27.7051 19.5027C27.7063 18.5651 27.5192 17.6365 27.1547 16.77C26.7901 15.9036 26.2553 15.1163 25.5807 14.4533C24.9061 13.7903 24.105 13.2646 23.2234 12.9063C22.3418 12.548 21.3969 12.3642 20.4429 12.3653ZM28.0045 25.2736C27.6692 25.2734 27.3413 25.371 27.0625 25.5539C26.7836 25.7369 26.5662 25.997 26.4378 26.3014C26.3093 26.6058 26.2756 26.9408 26.3409 27.264C26.4062 27.5873 26.5676 27.8842 26.8046 28.1173C27.0417 28.3503 27.3437 28.5091 27.6726 28.5734C28.0014 28.6378 28.3423 28.6049 28.6521 28.4788C28.9619 28.3527 29.2267 28.1392 29.413 27.8652C29.5993 27.5912 29.6987 27.2691 29.6987 26.9396C29.6996 26.7207 29.6566 26.5039 29.5721 26.3014C29.4875 26.099 29.3632 25.9149 29.2061 25.7598C29.049 25.6047 28.8623 25.4816 28.6567 25.3976C28.4511 25.3135 28.2307 25.2702 28.008 25.2701L28.0045 25.2736ZM36.0302 39H4.85557C3.72812 39 2.64684 38.5598 1.8496 37.7763C1.05237 36.9928 0.604492 35.9301 0.604492 34.822L0.604492 4.18346C0.604492 3.07539 1.05237 2.0127 1.8496 1.22918C2.64684 0.445652 3.72812 0.00547409 4.85557 0.00547409H36.0302C37.1576 0.00547409 38.2389 0.445652 39.0361 1.22918C39.8334 2.0127 40.2812 3.07539 40.2812 4.18346V34.822C40.2812 35.9301 39.8334 36.9928 39.0361 37.7763C38.2389 38.5598 37.1576 39 36.0302 39ZM34.5139 13.758C34.3997 11.5271 33.8816 9.55043 32.2246 7.92624C30.5675 6.30204 28.558 5.78241 26.2908 5.67622C23.9518 5.54652 16.9393 5.54652 14.6003 5.67622C12.3304 5.7885 10.3262 6.29856 8.66649 7.92624C7.0068 9.55391 6.48515 11.5315 6.3771 13.758C6.24514 16.0576 6.24514 22.9504 6.3771 25.2475C6.49135 27.4783 7.00325 29.455 8.66649 31.0792C10.3297 32.7034 12.3392 33.217 14.6003 33.3232C16.9393 33.4529 23.9518 33.4529 26.2908 33.3232C28.5607 33.2109 30.5711 32.7008 32.2246 31.0731C33.878 29.4455 34.4059 27.4679 34.5139 25.237C34.6459 22.9461 34.6459 16.0594 34.5139 13.758Z" fill="#E3F8F5"/>
</svg>
