<svg width="85" height="69" viewBox="0 0 85 69" fill="none" xmlns="http://www.w3.org/2000/svg">
<path fill-rule="evenodd" clip-rule="evenodd" d="M28.6982 50.42L28.6895 50.4121L34.7429 43.4773L37.2429 45.7065L33.1125 50.4384L28.6982 50.42Z" fill="#267A95"/>
<path fill-rule="evenodd" clip-rule="evenodd" d="M56.0156 50.4512L50.0874 43.5561L47.7803 45.5823L51.955 50.4378L56.0156 50.4512Z" fill="#267A95"/>
<path fill-rule="evenodd" clip-rule="evenodd" d="M42.0598 45.3452C42.2478 45.3947 42.4455 45.3943 42.6333 45.3439L62.7651 39.9436L79.0693 37.047C81.0446 36.696 81.5911 34.1206 79.9285 32.9977L79.18 32.4922L83.4011 34.955C85.1658 35.9846 84.7356 38.6473 82.7365 39.0689L64.6575 42.8815L42.6611 49.4177C42.4554 49.4789 42.2365 49.4794 42.0305 49.4193L19.6136 42.8815L1.92062 39.0829C-0.0730669 38.6549 -0.497245 35.9984 1.26401 34.9708L5.52222 32.4863L4.74471 33.0114C3.08488 34.1324 3.62614 36.703 5.59707 37.0595L21.5431 39.9436L42.0598 45.3452Z" fill="#267A95"/>
<path fill-rule="evenodd" clip-rule="evenodd" d="M41.8822 36.9713C42.0909 37.0799 42.3379 37.0864 42.552 36.9891L49.1638 33.9828C54.277 31.6579 59.9726 30.9297 65.5062 31.8934L78.6874 34.1887L78.9268 34.323L59.8549 38.8153L42.4555 44.1232C42.297 44.1715 42.1277 44.172 41.969 44.1244L24.237 38.8153L5.79297 34.3989L6.34345 34.0865L20.1685 31.873C26.0852 30.9257 32.1497 31.9075 37.4654 34.6732L41.8822 36.9713Z" fill="#9CC7D6"/>
<path fill-rule="evenodd" clip-rule="evenodd" d="M41.736 36.4852C41.953 36.605 42.2147 36.6122 42.438 36.5045L47.8133 33.912C53.1548 31.3359 59.1779 30.5278 65.0095 31.605L76.4703 33.722L76.6948 33.8556L58.7149 37.7836L42.3266 42.8087C42.1674 42.8575 41.9973 42.8579 41.8378 42.8099L25.1361 37.7836L7.74805 33.9315L8.26658 33.6193L20.2703 31.5807C26.4983 30.5231 32.9009 31.6092 38.4317 34.6616L41.736 36.4852Z" fill="#267A95"/>
<path fill-rule="evenodd" clip-rule="evenodd" d="M64.5549 30.1682C63.4999 19.4262 53.8385 11.0136 42.0759 11.0136C30.3133 11.0136 20.6519 19.4262 19.597 30.1682C19.5337 29.5244 19.5014 28.8723 19.5014 28.2131C19.5014 16.5546 29.6084 7.10352 42.0759 7.10352C54.5435 7.10352 64.6504 16.5546 64.6504 28.2131C64.6504 28.8723 64.6181 29.5244 64.5549 30.1682Z" fill="url(#paint0_linear_1165_1837)"/>
<path fill-rule="evenodd" clip-rule="evenodd" d="M63.1433 18.0259C63.1986 17.4042 63.5423 16.5293 64.0837 15.7278C64.6245 14.9271 65.2225 14.4071 65.6537 14.3077C65.6427 14.2877 65.6307 14.2687 65.6178 14.2508C65.2825 13.7843 64.4475 14.2401 63.7528 15.2686C63.058 16.2972 62.7666 17.5091 63.1019 17.9755C63.1149 17.9937 63.1288 18.0105 63.1433 18.0259Z" fill="url(#paint1_linear_1165_1837)"/>
<path fill-rule="evenodd" clip-rule="evenodd" d="M58.8718 12.539C58.9053 11.9126 59.2176 11.0068 59.7296 10.1561C60.2413 9.30577 60.8199 8.73075 61.2468 8.5917C61.235 8.57256 61.2223 8.55455 61.2088 8.53775C60.8578 8.10267 60.0404 8.63528 59.3832 9.72736C58.726 10.8194 58.4777 12.0575 58.8287 12.4925C58.8424 12.5095 58.8568 12.525 58.8718 12.539Z" fill="url(#paint2_linear_1165_1837)"/>
<path fill-rule="evenodd" clip-rule="evenodd" d="M53.8696 8.32301C53.8623 7.69201 54.114 6.73485 54.5675 5.79924C55.0203 4.86511 55.557 4.19435 55.9713 3.98369C55.9585 3.9668 55.945 3.95118 55.9307 3.93686C55.5547 3.56119 54.7783 4.22975 54.1965 5.43012C53.6147 6.6305 53.4478 7.90813 53.8238 8.2838C53.8385 8.29845 53.8537 8.31151 53.8696 8.32301Z" fill="url(#paint3_linear_1165_1837)"/>
<path fill-rule="evenodd" clip-rule="evenodd" d="M66.0947 25.3707C66.1728 24.7555 66.5474 23.9157 67.1162 23.1679C67.6852 22.4199 68.3011 21.9577 68.735 21.9001C68.7244 21.8782 68.7128 21.8573 68.7001 21.8375C68.3825 21.3399 67.5327 21.7151 66.8022 22.6756C66.0716 23.636 65.7368 24.818 66.0544 25.3156C66.067 25.3353 66.0804 25.3537 66.0947 25.3707Z" fill="url(#paint4_linear_1165_1837)"/>
<path fill-rule="evenodd" clip-rule="evenodd" d="M48.348 6.18098C48.1759 5.5873 48.1502 4.52526 48.311 3.35988C48.4714 2.19697 48.7761 1.23223 49.0918 0.778437C49.0764 0.770556 49.0606 0.764258 49.0445 0.759596C48.6093 0.633905 48.0895 1.74361 47.8833 3.23819C47.6771 4.73276 47.8628 6.04625 48.2979 6.17194C48.3145 6.17674 48.3312 6.17973 48.348 6.18098Z" fill="url(#paint5_linear_1165_1837)"/>
<path fill-rule="evenodd" clip-rule="evenodd" d="M42.6594 5.44791C42.3531 4.98061 42.0679 4.00085 41.9308 2.82848C41.7937 1.65612 41.8403 0.594996 42.0233 0.00764026C42.0066 0.00819343 41.9901 0.0104703 41.9736 0.0145176C41.537 0.121648 41.3257 1.42868 41.5017 2.93385C41.6776 4.43902 42.1741 5.57235 42.6107 5.46522C42.6273 5.46116 42.6435 5.45537 42.6594 5.44791Z" fill="url(#paint6_linear_1165_1837)"/>
<path fill-rule="evenodd" clip-rule="evenodd" d="M21.3443 17.6795C20.9122 17.5912 20.3091 17.0862 19.7605 16.299C19.2119 15.5117 18.86 14.6462 18.7985 14.0261C18.784 14.042 18.7702 14.0593 18.7572 14.078C18.4264 14.5527 18.7293 15.757 19.4337 16.7679C20.1382 17.7789 20.9774 18.2136 21.3082 17.7388C21.3212 17.7202 21.3333 17.7004 21.3443 17.6795Z" fill="url(#paint7_linear_1165_1837)"/>
<path fill-rule="evenodd" clip-rule="evenodd" d="M18.7496 24.8542C18.3175 24.766 17.7144 24.261 17.1658 23.4736C16.6172 22.6865 16.2653 21.8211 16.2037 21.201C16.1892 21.2169 16.1754 21.2342 16.1623 21.2529C15.8316 21.7275 16.1345 22.9318 16.839 23.9427C17.5435 24.9537 18.3826 25.3884 18.7134 24.9138C18.7264 24.8951 18.7385 24.8752 18.7496 24.8542Z" fill="url(#paint8_linear_1165_1837)"/>
<path fill-rule="evenodd" clip-rule="evenodd" d="M25.3289 12.4834C24.9059 12.3203 24.3399 11.7107 23.8469 10.8289C23.3554 9.94985 23.0635 9.02778 23.0425 8.39973C23.0273 8.41283 23.0126 8.42741 22.9987 8.44349C22.6392 8.85762 22.8602 10.1099 23.4924 11.2406C24.1246 12.3712 24.9285 12.9521 25.288 12.5379C25.3026 12.5211 25.3162 12.503 25.3289 12.4834Z" fill="url(#paint9_linear_1165_1837)"/>
<path fill-rule="evenodd" clip-rule="evenodd" d="M30.3446 8.71134C29.9215 8.54803 29.3556 7.93785 28.8628 7.05554C28.3716 6.17622 28.08 5.25409 28.0591 4.62602C28.0439 4.63908 28.0294 4.6536 28.0154 4.6696C27.6558 5.08344 27.8765 6.33591 28.5084 7.46706C29.1402 8.59822 29.944 9.17972 30.3036 8.76588C30.3182 8.74907 30.3318 8.73086 30.3446 8.71134Z" fill="url(#paint10_linear_1165_1837)"/>
<path fill-rule="evenodd" clip-rule="evenodd" d="M36.7947 6.22919C36.4063 5.92506 35.9394 5.13208 35.5795 4.09452C35.2198 3.05749 35.0601 2.04481 35.1245 1.41575C35.1083 1.42353 35.0925 1.43291 35.0771 1.44394C34.6729 1.73376 34.7198 3.04841 35.1817 4.38029C35.6437 5.71217 36.3458 6.55692 36.75 6.2671C36.7656 6.25596 36.7805 6.2433 36.7947 6.22919Z" fill="url(#paint11_linear_1165_1837)"/>
<path d="M2.24529 63.1292L1.94382 62.2382C1.92149 62.1816 1.89767 62.1154 1.87236 62.0395C1.84705 61.9621 1.82174 61.8787 1.79643 61.7894C1.7741 61.8802 1.75028 61.9643 1.72497 62.0417C1.69967 62.1191 1.67585 62.1861 1.65352 62.2427L1.35428 63.1292H2.24529ZM3.44446 64.373H2.85939C2.79388 64.373 2.74103 64.3582 2.70084 64.3284C2.66064 64.2971 2.63012 64.2577 2.60928 64.21L2.41723 63.6428H1.1801L0.988054 64.21C0.971678 64.2517 0.941903 64.2897 0.89873 64.3239C0.857046 64.3567 0.80494 64.373 0.742414 64.373H0.152877L1.41234 61.1194H2.18499L3.44446 64.373ZM6.33157 63.7701V64.373H4.37091V61.1194H5.1257V63.7701H6.33157ZM10.242 63.8036C10.3417 63.8036 10.4229 63.791 10.4854 63.7656C10.5494 63.7403 10.5993 63.7076 10.635 63.6674C10.6707 63.6272 10.6953 63.5818 10.7087 63.5312C10.7221 63.4806 10.7288 63.4292 10.7288 63.3771C10.7288 63.3175 10.7206 63.2639 10.7042 63.2163C10.6894 63.1687 10.6626 63.1285 10.6238 63.0957C10.5866 63.063 10.5368 63.0377 10.4742 63.0198C10.4117 63.0019 10.3328 62.993 10.2375 62.993H9.71051V63.8036H10.242ZM9.71051 61.6844V62.4883H10.1035C10.1869 62.4883 10.2621 62.4824 10.3291 62.4705C10.3961 62.4585 10.4526 62.4377 10.4988 62.4079C10.5464 62.3782 10.5822 62.3372 10.606 62.2851C10.6313 62.233 10.6439 62.1675 10.6439 62.0886C10.6439 62.0112 10.6343 61.9472 10.6149 61.8965C10.5956 61.8444 10.5658 61.8028 10.5256 61.7715C10.4854 61.7402 10.434 61.7179 10.3715 61.7045C10.3105 61.6911 10.2375 61.6844 10.1527 61.6844H9.71051ZM10.1527 61.1194C10.3775 61.1194 10.5688 61.1403 10.7266 61.182C10.8844 61.2236 11.0132 61.2824 11.1129 61.3584C11.2126 61.4343 11.2848 61.5266 11.3295 61.6353C11.3757 61.744 11.3987 61.8653 11.3987 61.9993C11.3987 62.0722 11.3883 62.1429 11.3675 62.2114C11.3466 62.2784 11.3139 62.3417 11.2692 62.4012C11.2246 62.4593 11.1672 62.5129 11.0973 62.562C11.0273 62.6111 10.9432 62.6536 10.8449 62.6893C11.0593 62.7414 11.2179 62.8255 11.3206 62.9416C11.4233 63.0578 11.4747 63.2081 11.4747 63.3927C11.4747 63.5312 11.4479 63.6599 11.3943 63.779C11.3407 63.8981 11.2618 64.0024 11.1576 64.0917C11.0548 64.1795 10.9275 64.2487 10.7757 64.2994C10.6238 64.3485 10.4504 64.373 10.2554 64.373H8.95573V61.1194H10.1527ZM14.2804 63.1292L13.979 62.2382C13.9566 62.1816 13.9328 62.1154 13.9075 62.0395C13.8822 61.9621 13.8569 61.8787 13.8316 61.7894C13.8093 61.8802 13.7854 61.9643 13.7601 62.0417C13.7348 62.1191 13.711 62.1861 13.6887 62.2427L13.3894 63.1292H14.2804ZM15.4796 64.373H14.8945C14.829 64.373 14.7762 64.3582 14.736 64.3284C14.6958 64.2971 14.6653 64.2577 14.6444 64.21L14.4524 63.6428H13.2152L13.0232 64.21C13.0068 64.2517 12.9771 64.2897 12.9339 64.3239C12.8922 64.3567 12.8401 64.373 12.7776 64.373H12.188L13.4475 61.1194H14.2201L15.4796 64.373ZM18.1255 63.1292L17.8241 62.2382C17.8017 62.1816 17.7779 62.1154 17.7526 62.0395C17.7273 61.9621 17.702 61.8787 17.6767 61.7894C17.6544 61.8802 17.6305 61.9643 17.6052 62.0417C17.5799 62.1191 17.5561 62.1861 17.5338 62.2427L17.2345 63.1292H18.1255ZM19.3247 64.373H18.7396C18.6741 64.373 18.6213 64.3582 18.5811 64.3284C18.5409 64.2971 18.5104 64.2577 18.4895 64.21L18.2975 63.6428H17.0604L16.8683 64.21C16.8519 64.2517 16.8222 64.2897 16.779 64.3239C16.7373 64.3567 16.6852 64.373 16.6227 64.373H16.0331L17.2926 61.1194H18.0652L19.3247 64.373ZM23.0917 61.1194V64.373H22.3324V62.9975H21.0104V64.373H20.2512V61.1194H21.0104V62.4794H22.3324V61.1194H23.0917ZM25.1521 64.373H24.3929V61.1194H25.1521V64.373ZM28.7878 61.7179H27.8722V64.373H27.1174V61.7179H26.2019V61.1194H28.7878V61.7179ZM32.6817 61.1194V64.373H31.9225V62.9975H30.6005V64.373H29.8413V61.1194H30.6005V62.4794H31.9225V61.1194H32.6817ZM38.8799 62.7451C38.8799 62.9803 38.8389 63.1992 38.757 63.4017C38.6767 63.6041 38.5628 63.7805 38.4154 63.9309C38.268 64.0798 38.0901 64.1966 37.8817 64.2815C37.6747 64.3663 37.4447 64.4088 37.1917 64.4088C36.9386 64.4088 36.7078 64.3663 36.4994 64.2815C36.291 64.1966 36.1123 64.0798 35.9635 63.9309C35.8161 63.7805 35.7014 63.6041 35.6196 63.4017C35.5392 63.1992 35.499 62.9803 35.499 62.7451C35.499 62.5099 35.5392 62.2911 35.6196 62.0886C35.7014 61.8861 35.8161 61.7105 35.9635 61.5616C36.1123 61.4127 36.291 61.2958 36.4994 61.211C36.7078 61.1261 36.9386 61.0837 37.1917 61.0837C37.4447 61.0837 37.6747 61.1269 37.8817 61.2132C38.0901 61.2981 38.268 61.4149 38.4154 61.5638C38.5628 61.7127 38.6767 61.8884 38.757 62.0908C38.8389 62.2933 38.8799 62.5114 38.8799 62.7451ZM38.1072 62.7451C38.1072 62.5843 38.0864 62.4399 38.0447 62.3119C38.003 62.1824 37.9427 62.073 37.8638 61.9836C37.7864 61.8943 37.6911 61.8258 37.578 61.7782C37.4648 61.7306 37.3361 61.7067 37.1917 61.7067C37.0458 61.7067 36.9155 61.7306 36.8009 61.7782C36.6877 61.8258 36.5917 61.8943 36.5128 61.9836C36.4354 62.073 36.3758 62.1824 36.3341 62.3119C36.2925 62.4399 36.2716 62.5843 36.2716 62.7451C36.2716 62.9074 36.2925 63.0533 36.3341 63.1828C36.3758 63.3108 36.4354 63.4195 36.5128 63.5088C36.5917 63.5982 36.6877 63.6666 36.8009 63.7143C36.9155 63.7604 37.0458 63.7835 37.1917 63.7835C37.3361 63.7835 37.4648 63.7604 37.578 63.7143C37.6911 63.6666 37.7864 63.5982 37.8638 63.5088C37.9427 63.4195 38.003 63.3108 38.0447 63.1828C38.0864 63.0533 38.1072 62.9074 38.1072 62.7451ZM42.8345 61.1194V64.373H42.4414C42.3834 64.373 42.3343 64.3641 42.2941 64.3462C42.2554 64.3269 42.2166 64.2941 42.1779 64.248L40.6438 62.3074C40.6498 62.3655 40.6535 62.4221 40.655 62.4772C40.6579 62.5307 40.6594 62.5814 40.6594 62.629V64.373H39.994V61.1194H40.3915C40.4242 61.1194 40.4518 61.1209 40.4741 61.1239C40.4964 61.1269 40.5165 61.1328 40.5344 61.1418C40.5522 61.1492 40.5694 61.1604 40.5857 61.1753C40.6021 61.1901 40.6207 61.2102 40.6416 61.2356L42.1891 63.1895C42.1817 63.127 42.1764 63.0667 42.1735 63.0086C42.1705 62.9491 42.169 62.8933 42.169 62.8411V61.1194H42.8345ZM46.0963 63.7701V64.373H44.1357V61.1194H44.8904V63.7701H46.0963ZM47.9113 64.373H47.1521V61.1194H47.9113V64.373ZM52.0495 61.1194V64.373H51.6564C51.5984 64.373 51.5493 64.3641 51.5091 64.3462C51.4703 64.3269 51.4316 64.2941 51.3929 64.248L49.8588 62.3074C49.8648 62.3655 49.8685 62.4221 49.87 62.4772C49.8729 62.5307 49.8744 62.5814 49.8744 62.629V64.373H49.209V61.1194H49.6065C49.6392 61.1194 49.6668 61.1209 49.6891 61.1239C49.7114 61.1269 49.7315 61.1328 49.7494 61.1418C49.7672 61.1492 49.7844 61.1604 49.8007 61.1753C49.8171 61.1901 49.8357 61.2102 49.8566 61.2356L51.4041 63.1895C51.3967 63.127 51.3914 63.0667 51.3885 63.0086C51.3855 62.9491 51.384 62.8933 51.384 62.8411V61.1194H52.0495ZM54.1099 61.7V62.4593H55.1327V63.0176H54.1099V63.7924H55.4453V64.373H53.3507V61.1194H55.4453V61.7H54.1099ZM59.8512 63.1292L59.5498 62.2382C59.5274 62.1816 59.5036 62.1154 59.4783 62.0395C59.453 61.9621 59.4277 61.8787 59.4024 61.7894C59.38 61.8802 59.3562 61.9643 59.3309 62.0417C59.3056 62.1191 59.2818 62.1861 59.2595 62.2427L58.9602 63.1292H59.8512ZM61.0504 64.373H60.4653C60.3998 64.373 60.347 64.3582 60.3068 64.3284C60.2666 64.2971 60.2361 64.2577 60.2152 64.21L60.0232 63.6428H58.786L58.594 64.21C58.5776 64.2517 58.5478 64.2897 58.5047 64.3239C58.463 64.3567 58.4109 64.373 58.3484 64.373H57.7588L59.0183 61.1194H59.7909L61.0504 64.373ZM64.0607 63.5312C64.0786 63.5312 64.0964 63.5349 64.1143 63.5423C64.1322 63.5483 64.1493 63.5595 64.1657 63.5758L64.4649 63.8907C64.3339 64.0619 64.1694 64.1914 63.9714 64.2793C63.7749 64.3656 63.5419 64.4088 63.2724 64.4088C63.0253 64.4088 62.8035 64.3671 62.607 64.2837C62.4119 64.1989 62.246 64.0827 62.109 63.9354C61.9735 63.7865 61.8693 63.6108 61.7964 63.4084C61.7234 63.2044 61.6869 62.9833 61.6869 62.7451C61.6869 62.5025 61.7264 62.2799 61.8053 62.0774C61.8842 61.8735 61.9951 61.6978 62.138 61.5504C62.2809 61.403 62.4521 61.2884 62.6516 61.2065C62.8511 61.1246 63.0707 61.0837 63.3104 61.0837C63.4325 61.0837 63.5471 61.0949 63.6543 61.1172C63.763 61.138 63.8642 61.1678 63.958 61.2065C64.0518 61.2437 64.1381 61.2891 64.217 61.3427C64.2959 61.3963 64.3659 61.4544 64.4269 61.5169L64.1724 61.8586C64.156 61.8794 64.1366 61.8988 64.1143 61.9166C64.092 61.933 64.0607 61.9412 64.0205 61.9412C63.9937 61.9412 63.9684 61.9353 63.9446 61.9233C63.9208 61.9114 63.8955 61.8973 63.8687 61.8809C63.8419 61.8631 63.8121 61.8444 63.7793 61.8251C63.7481 61.8042 63.7101 61.7856 63.6655 61.7693C63.6223 61.7514 63.5709 61.7365 63.5114 61.7246C63.4533 61.7127 63.3848 61.7067 63.3059 61.7067C63.1809 61.7067 63.0662 61.7298 62.962 61.776C62.8593 61.8221 62.77 61.8898 62.6941 61.9792C62.6196 62.067 62.5616 62.1757 62.5199 62.3052C62.4797 62.4332 62.4596 62.5799 62.4596 62.7451C62.4596 62.9119 62.4819 63.06 62.5266 63.1895C62.5727 63.319 62.6345 63.4284 62.7119 63.5178C62.7908 63.6056 62.8824 63.6726 62.9866 63.7188C63.0908 63.7649 63.2025 63.788 63.3216 63.788C63.39 63.788 63.4526 63.785 63.5091 63.779C63.5657 63.7716 63.6186 63.7604 63.6677 63.7455C63.7168 63.7292 63.763 63.7083 63.8061 63.683C63.8493 63.6562 63.8932 63.6227 63.9379 63.5825C63.9558 63.5676 63.9751 63.5557 63.996 63.5468C64.0168 63.5364 64.0384 63.5312 64.0607 63.5312ZM67.1838 63.1292L66.8823 62.2382C66.86 62.1816 66.8362 62.1154 66.8109 62.0395C66.7856 61.9621 66.7603 61.8787 66.7349 61.7894C66.7126 61.8802 66.6888 61.9643 66.6635 62.0417C66.6382 62.1191 66.6144 62.1861 66.592 62.2427L66.2928 63.1292H67.1838ZM68.383 64.373H67.7979C67.7324 64.373 67.6795 64.3582 67.6394 64.3284C67.5992 64.2971 67.5686 64.2577 67.5478 64.21L67.3557 63.6428H66.1186L65.9266 64.21C65.9102 64.2517 65.8804 64.2897 65.8372 64.3239C65.7956 64.3567 65.7435 64.373 65.6809 64.373H65.0914L66.3509 61.1194H67.1235L68.383 64.373ZM72.2616 62.7451C72.2616 62.9803 72.2206 63.1977 72.1388 63.3972C72.0584 63.5952 71.9445 63.7671 71.7971 63.913C71.6497 64.0574 71.4718 64.1706 71.2634 64.2525C71.0564 64.3329 70.8264 64.373 70.5734 64.373H69.3094V61.1194H70.5734C70.8264 61.1194 71.0564 61.1604 71.2634 61.2423C71.4718 61.3241 71.6497 61.4373 71.7971 61.5817C71.9445 61.7261 72.0584 61.898 72.1388 62.0975C72.2206 62.2955 72.2616 62.5114 72.2616 62.7451ZM71.4889 62.7451C71.4889 62.5843 71.4681 62.4392 71.4264 62.3097C71.3847 62.1801 71.3244 62.0707 71.2455 61.9814C71.1681 61.8906 71.0728 61.8214 70.9597 61.7737C70.8465 61.7246 70.7178 61.7 70.5734 61.7H70.0687V63.7924H70.5734C70.7178 63.7924 70.8465 63.7686 70.9597 63.721C71.0728 63.6719 71.1681 63.6026 71.2455 63.5133C71.3244 63.4225 71.3847 63.3123 71.4264 63.1828C71.4681 63.0533 71.4889 62.9074 71.4889 62.7451ZM74.1362 61.7V62.4593H75.159V63.0176H74.1362V63.7924H75.4716V64.373H73.377V61.1194H75.4716V61.7H74.1362ZM80.2649 61.1194V64.373H79.5994V62.5017C79.5994 62.4585 79.6002 62.4116 79.6017 62.361C79.6047 62.3104 79.6091 62.2591 79.6151 62.2069L78.7509 63.8795C78.7241 63.9316 78.6876 63.9711 78.6415 63.9979C78.5968 64.0247 78.5454 64.0381 78.4874 64.0381H78.3846C78.3266 64.0381 78.2745 64.0247 78.2283 63.9979C78.1837 63.9711 78.1479 63.9316 78.1211 63.8795L77.2569 62.2025C77.2614 62.2561 77.2651 62.3089 77.2681 62.361C77.2711 62.4116 77.2726 62.4585 77.2726 62.5017V64.373H76.6071V61.1194H77.1832C77.216 61.1194 77.2443 61.1202 77.2681 61.1217C77.2934 61.1232 77.3157 61.1276 77.3351 61.1351C77.3544 61.1425 77.3716 61.1544 77.3865 61.1708C77.4028 61.1857 77.4185 61.2073 77.4333 61.2356L78.2708 62.8858C78.3005 62.9424 78.3288 63.0012 78.3556 63.0622C78.3839 63.1233 78.4107 63.1858 78.436 63.2498C78.4613 63.1843 78.4874 63.1203 78.5142 63.0578C78.5424 62.9952 78.5722 62.9357 78.6035 62.8791L79.4387 61.2356C79.4536 61.2073 79.4684 61.1857 79.4833 61.1708C79.4997 61.1544 79.5176 61.1425 79.5369 61.1351C79.5563 61.1276 79.5779 61.1232 79.6017 61.1217C79.627 61.1202 79.656 61.1194 79.6888 61.1194H80.2649ZM83.1231 63.1359V64.373H82.3683V63.1359L81.1892 61.1194H81.8547C81.9202 61.1194 81.9716 61.1351 82.0088 61.1663C82.0475 61.1961 82.0795 61.2348 82.1048 61.2824L82.5648 62.2293C82.6035 62.3037 82.6385 62.3737 82.6698 62.4392C82.701 62.5032 82.7286 62.5665 82.7524 62.629C82.7747 62.565 82.8 62.501 82.8283 62.437C82.8581 62.3715 82.8923 62.3022 82.931 62.2293L83.3866 61.2824C83.397 61.2631 83.4097 61.2437 83.4246 61.2244C83.4394 61.205 83.4566 61.1879 83.4759 61.173C83.4968 61.1566 83.5198 61.144 83.5451 61.1351C83.5719 61.1246 83.601 61.1194 83.6322 61.1194H84.3022L83.1231 63.1359Z" fill="#28741C"/>
<path d="M9.16401 67.3747C9.22821 67.3747 9.28264 67.3668 9.3273 67.351C9.3729 67.3342 9.41011 67.3114 9.43896 67.2826C9.4678 67.2537 9.48874 67.2202 9.50176 67.1821C9.51479 67.143 9.5213 67.1011 9.5213 67.0565C9.5213 66.9671 9.49199 66.8974 9.43338 66.8471C9.37569 66.7969 9.2859 66.7717 9.16401 66.7717H8.9742V67.3747H9.16401ZM10.1661 68.4521H9.73903C9.65994 68.4521 9.60318 68.4224 9.56876 68.3628L9.231 67.7725C9.21518 67.7473 9.19751 67.7292 9.17797 67.718C9.15843 67.7059 9.13051 67.6999 9.09422 67.6999H8.9742V68.4521H8.50246V66.4186H9.16401C9.31102 66.4186 9.43617 66.434 9.53945 66.4647C9.64366 66.4945 9.72833 66.5363 9.79346 66.5903C9.85952 66.6443 9.90744 66.708 9.93722 66.7815C9.96699 66.855 9.98188 66.935 9.98188 67.0216C9.98188 67.0876 9.97304 67.15 9.95536 67.2086C9.93768 67.2672 9.91163 67.3216 9.8772 67.3719C9.84278 67.4212 9.79998 67.4654 9.7488 67.5045C9.69856 67.5436 9.6404 67.5757 9.57434 67.6008C9.60505 67.6166 9.63389 67.6366 9.66087 67.6608C9.68786 67.6841 9.71205 67.712 9.73345 67.7445L10.1661 68.4521ZM11.4126 67.5547C11.4126 67.5203 11.4079 67.4868 11.3986 67.4542C11.3903 67.4217 11.3758 67.3928 11.3554 67.3677C11.3358 67.3416 11.3098 67.3207 11.2772 67.3049C11.2446 67.2891 11.2051 67.2812 11.1586 67.2812C11.0767 67.2812 11.0125 67.3049 10.966 67.3524C10.9194 67.3989 10.8887 67.4663 10.8739 67.5547H11.4126ZM10.8683 67.8059C10.8822 67.9269 10.919 68.0148 10.9785 68.0697C11.0381 68.1237 11.1148 68.1507 11.2088 68.1507C11.2591 68.1507 11.3023 68.1446 11.3386 68.1325C11.3749 68.1204 11.407 68.1069 11.4349 68.0921C11.4638 68.0772 11.4898 68.0637 11.5131 68.0516C11.5373 68.0395 11.5624 68.0334 11.5884 68.0334C11.6229 68.0334 11.6489 68.046 11.6666 68.0711L11.7922 68.226C11.7475 68.2772 11.6992 68.3191 11.6471 68.3517C11.5959 68.3833 11.5428 68.4084 11.488 68.427C11.434 68.4447 11.3796 68.4568 11.3247 68.4633C11.2707 68.4708 11.2191 68.4745 11.1697 68.4745C11.0683 68.4745 10.9729 68.4582 10.8836 68.4256C10.7952 68.3921 10.7175 68.3428 10.6505 68.2777C10.5845 68.2126 10.5319 68.1316 10.4928 68.0348C10.4547 67.9381 10.4356 67.8255 10.4356 67.6971C10.4356 67.6003 10.4519 67.5087 10.4845 67.4221C10.518 67.3356 10.5654 67.2598 10.6268 67.1946C10.6892 67.1295 10.7641 67.0779 10.8515 67.0397C10.9399 67.0016 11.0395 66.9825 11.1502 66.9825C11.246 66.9825 11.3335 66.9974 11.4126 67.0272C11.4926 67.0569 11.561 67.1002 11.6178 67.157C11.6754 67.2137 11.7201 67.2835 11.7517 67.3663C11.7843 67.4482 11.8006 67.5412 11.8006 67.6454C11.8006 67.678 11.7992 67.7045 11.7964 67.725C11.7936 67.7455 11.7885 67.7618 11.781 67.7738C11.7736 67.7859 11.7634 67.7943 11.7503 67.799C11.7382 67.8036 11.7224 67.8059 11.7029 67.8059H10.8683ZM13.2579 67.3216C13.2467 67.3393 13.2346 67.3519 13.2216 67.3593C13.2095 67.3668 13.1937 67.3705 13.1741 67.3705C13.1536 67.3705 13.1332 67.3663 13.1127 67.3579C13.0922 67.3486 13.0699 67.3389 13.0457 67.3286C13.0224 67.3184 12.9959 67.3091 12.9662 67.3007C12.9364 67.2914 12.9024 67.2868 12.8643 67.2868C12.8094 67.2868 12.767 67.2975 12.7373 67.3189C12.7084 67.3393 12.694 67.3682 12.694 67.4054C12.694 67.4324 12.7033 67.4547 12.7219 67.4724C12.7415 67.4901 12.767 67.5059 12.7987 67.5198C12.8303 67.5329 12.8661 67.5454 12.9061 67.5575C12.9462 67.5696 12.9871 67.5831 13.029 67.598C13.0708 67.6129 13.1118 67.6306 13.1518 67.651C13.1918 67.6706 13.2276 67.6952 13.2592 67.725C13.2909 67.7538 13.316 67.7892 13.3346 67.8311C13.3542 67.8729 13.3639 67.9232 13.3639 67.9818C13.3639 68.0534 13.3509 68.1195 13.3248 68.18C13.2988 68.2405 13.2597 68.2926 13.2076 68.3363C13.1564 68.38 13.0927 68.414 13.0164 68.4382C12.941 68.4624 12.854 68.4745 12.7554 68.4745C12.7061 68.4745 12.6568 68.4698 12.6075 68.4605C12.5582 68.4512 12.5102 68.4387 12.4637 68.4228C12.4181 68.407 12.3758 68.3884 12.3367 68.367C12.2976 68.3447 12.2641 68.321 12.2362 68.2958L12.3367 68.1367C12.3479 68.1181 12.3618 68.1037 12.3786 68.0935C12.3963 68.0823 12.4186 68.0767 12.4456 68.0767C12.4707 68.0767 12.493 68.0823 12.5126 68.0935C12.533 68.1046 12.5549 68.1167 12.5782 68.1297C12.6014 68.1428 12.6284 68.1549 12.6591 68.166C12.6907 68.1772 12.7303 68.1828 12.7777 68.1828C12.8112 68.1828 12.8396 68.1795 12.8629 68.173C12.8861 68.1656 12.9047 68.1558 12.9187 68.1437C12.9327 68.1316 12.9429 68.1181 12.9494 68.1032C12.9559 68.0883 12.9592 68.073 12.9592 68.0572C12.9592 68.0283 12.9494 68.0046 12.9299 67.986C12.9103 67.9674 12.8847 67.9516 12.8531 67.9385C12.8215 67.9246 12.7852 67.912 12.7442 67.9009C12.7042 67.8888 12.6633 67.8753 12.6214 67.8604C12.5796 67.8455 12.5381 67.8278 12.4972 67.8073C12.4572 67.7859 12.4214 67.7594 12.3897 67.7278C12.3581 67.6952 12.3325 67.6557 12.313 67.6092C12.2934 67.5626 12.2837 67.5063 12.2837 67.4403C12.2837 67.3789 12.2953 67.3207 12.3186 67.2658C12.3427 67.21 12.3786 67.1611 12.426 67.1193C12.4735 67.0774 12.533 67.0444 12.6047 67.0202C12.6763 66.9951 12.7601 66.9825 12.8559 66.9825C12.908 66.9825 12.9582 66.9871 13.0066 66.9965C13.0559 67.0058 13.102 67.0188 13.1448 67.0355C13.1876 67.0523 13.2267 67.0723 13.262 67.0955C13.2974 67.1179 13.3286 67.1425 13.3556 67.1695L13.2579 67.3216ZM14.4199 68.4745C14.3511 68.4745 14.2901 68.4647 14.2371 68.4452C14.185 68.4247 14.1408 68.3963 14.1045 68.36C14.0692 68.3228 14.0422 68.2782 14.0236 68.226C14.005 68.1739 13.9956 68.1158 13.9956 68.0516V67.3035H13.8728C13.8505 67.3035 13.8314 67.2965 13.8156 67.2826C13.7998 67.2677 13.7919 67.2463 13.7919 67.2184V67.0495L14.0222 67.0048L14.1073 66.6517C14.1185 66.6071 14.1501 66.5847 14.2022 66.5847H14.4283V67.0076H14.787V67.3035H14.4283V68.0223C14.4283 68.0558 14.4362 68.0837 14.452 68.106C14.4688 68.1274 14.4925 68.1381 14.5232 68.1381C14.539 68.1381 14.5521 68.1367 14.5623 68.1339C14.5735 68.1302 14.5828 68.1265 14.5902 68.1228C14.5986 68.1181 14.606 68.1144 14.6125 68.1116C14.62 68.1079 14.6284 68.106 14.6377 68.106C14.6507 68.106 14.6609 68.1093 14.6684 68.1158C14.6767 68.1214 14.6851 68.1307 14.6935 68.1437L14.8247 68.3489C14.7689 68.3907 14.706 68.4224 14.6363 68.4438C14.5665 68.4642 14.4944 68.4745 14.4199 68.4745ZM15.9479 66.9825C16.0577 66.9825 16.1578 66.9997 16.248 67.0341C16.3383 67.0686 16.4155 67.1179 16.4797 67.1821C16.5448 67.2463 16.5951 67.3244 16.6304 67.4166C16.6667 67.5077 16.6849 67.6106 16.6849 67.725C16.6849 67.8404 16.6667 67.9446 16.6304 68.0376C16.5951 68.1297 16.5448 68.2084 16.4797 68.2735C16.4155 68.3377 16.3383 68.3875 16.248 68.4228C16.1578 68.4573 16.0577 68.4745 15.9479 68.4745C15.8372 68.4745 15.7363 68.4573 15.6451 68.4228C15.5548 68.3875 15.4767 68.3377 15.4106 68.2735C15.3455 68.2084 15.2948 68.1297 15.2585 68.0376C15.2231 67.9446 15.2054 67.8404 15.2054 67.725C15.2054 67.6106 15.2231 67.5077 15.2585 67.4166C15.2948 67.3244 15.3455 67.2463 15.4106 67.1821C15.4767 67.1179 15.5548 67.0686 15.6451 67.0341C15.7363 66.9997 15.8372 66.9825 15.9479 66.9825ZM15.9479 68.1535C16.0475 68.1535 16.1205 68.1186 16.1671 68.0488C16.2145 67.9781 16.2382 67.8711 16.2382 67.7278C16.2382 67.5845 16.2145 67.478 16.1671 67.4082C16.1205 67.3384 16.0475 67.3035 15.9479 67.3035C15.8456 67.3035 15.7707 67.3384 15.7232 67.4082C15.6758 67.478 15.6521 67.5845 15.6521 67.7278C15.6521 67.8711 15.6758 67.9781 15.7232 68.0488C15.7707 68.1186 15.8456 68.1535 15.9479 68.1535ZM17.6285 67.2281C17.6732 67.15 17.7243 67.0886 17.782 67.0439C17.8406 66.9992 17.9076 66.9769 17.983 66.9769C18.0481 66.9769 18.1012 66.9923 18.1421 67.023L18.1142 67.3412C18.1095 67.3617 18.1016 67.3756 18.0905 67.3831C18.0802 67.3905 18.0658 67.3942 18.0472 67.3942C18.0398 67.3942 18.03 67.3938 18.0179 67.3928C18.0058 67.3919 17.9932 67.391 17.9802 67.39C17.9672 67.3882 17.9537 67.3868 17.9397 67.3858C17.9267 67.384 17.9146 67.3831 17.9034 67.3831C17.8402 67.3831 17.7895 67.3998 17.7513 67.4333C17.7141 67.4668 17.6825 67.5133 17.6564 67.5729V68.4521H17.2238V67.0048H17.4806C17.502 67.0048 17.5196 67.0067 17.5336 67.0104C17.5485 67.0141 17.5606 67.0202 17.5699 67.0286C17.5801 67.036 17.5876 67.0462 17.5922 67.0593C17.5978 67.0723 17.6024 67.0881 17.6062 67.1067L17.6285 67.2281ZM19.053 67.0048V68.4521H18.6204V67.0048H19.053ZM19.0977 66.6085C19.0977 66.6429 19.0907 66.6754 19.0768 66.7061C19.0628 66.7359 19.0437 66.7624 19.0195 66.7857C18.9953 66.808 18.967 66.8262 18.9344 66.8401C18.9028 66.8532 18.8688 66.8597 18.8325 66.8597C18.7972 66.8597 18.7641 66.8532 18.7334 66.8401C18.7027 66.8262 18.6753 66.808 18.6511 66.7857C18.6278 66.7624 18.6092 66.7359 18.5953 66.7061C18.5822 66.6754 18.5757 66.6429 18.5757 66.6085C18.5757 66.5731 18.5822 66.5401 18.5953 66.5094C18.6092 66.4787 18.6278 66.4517 18.6511 66.4284C18.6753 66.4051 18.7027 66.387 18.7334 66.374C18.7641 66.3609 18.7972 66.3544 18.8325 66.3544C18.8688 66.3544 18.9028 66.3609 18.9344 66.374C18.967 66.387 18.9953 66.4051 19.0195 66.4284C19.0437 66.4517 19.0628 66.4787 19.0768 66.5094C19.0907 66.5401 19.0977 66.5731 19.0977 66.6085ZM20.075 67.1611C20.1029 67.1351 20.1317 67.1109 20.1615 67.0886C20.1913 67.0662 20.2229 67.0476 20.2564 67.0327C20.2908 67.0169 20.3276 67.0048 20.3667 66.9965C20.4067 66.9871 20.4499 66.9825 20.4965 66.9825C20.5755 66.9825 20.6453 66.9965 20.7058 67.0244C20.7672 67.0513 20.8189 67.0895 20.8607 67.1388C20.9026 67.1872 20.9342 67.2453 20.9556 67.3133C20.977 67.3803 20.9877 67.4533 20.9877 67.5324V68.4521H20.5551V67.5324C20.5551 67.4617 20.5388 67.4068 20.5062 67.3677C20.4737 67.3277 20.4257 67.3077 20.3625 67.3077C20.315 67.3077 20.2704 67.3179 20.2285 67.3384C20.1875 67.3579 20.1475 67.3849 20.1085 67.4193V68.4521H19.6758V67.0048H19.9438C19.9977 67.0048 20.0331 67.029 20.0498 67.0774L20.075 67.1611ZM22.14 67.6524C22.2117 67.6524 22.2633 67.6347 22.295 67.5994C22.3275 67.5631 22.3438 67.5166 22.3438 67.4598C22.3438 67.4012 22.3275 67.3551 22.295 67.3216C22.2633 67.2881 22.2117 67.2714 22.14 67.2714C22.0684 67.2714 22.0163 67.2881 21.9837 67.3216C21.9521 67.3551 21.9363 67.4012 21.9363 67.4598C21.9363 67.4877 21.94 67.5133 21.9474 67.5366C21.9558 67.5598 21.9684 67.5803 21.9851 67.598C22.0019 67.6147 22.0228 67.6282 22.0479 67.6385C22.074 67.6478 22.1047 67.6524 22.14 67.6524ZM22.475 68.5052C22.475 68.4708 22.4597 68.4461 22.429 68.4312C22.3982 68.4154 22.3582 68.4042 22.3089 68.3977C22.2596 68.3912 22.2042 68.3875 22.1428 68.3866C22.0824 68.3847 22.0219 68.381 21.9614 68.3754C21.9344 68.394 21.9121 68.4149 21.8944 68.4382C21.8777 68.4605 21.8693 68.4861 21.8693 68.515C21.8693 68.5354 21.8735 68.554 21.8818 68.5708C21.8911 68.5875 21.907 68.602 21.9293 68.614C21.9516 68.6261 21.9814 68.6354 22.0186 68.642C22.0568 68.6494 22.1047 68.6531 22.1624 68.6531C22.2247 68.6531 22.2759 68.6494 22.3159 68.642C22.3559 68.6345 22.3875 68.6243 22.4108 68.6113C22.435 68.5982 22.4517 68.5824 22.4611 68.5638C22.4704 68.5461 22.475 68.5266 22.475 68.5052ZM22.9021 67.0495V67.2072C22.9021 67.2314 22.8951 67.2505 22.8812 67.2644C22.8681 67.2784 22.8453 67.2891 22.8128 67.2965L22.7081 67.3202C22.7137 67.3407 22.7179 67.3617 22.7206 67.3831C22.7244 67.4045 22.7262 67.4268 22.7262 67.45C22.7262 67.5226 22.7109 67.5878 22.6802 67.6454C22.6504 67.7031 22.609 67.7524 22.556 67.7934C22.5039 67.8334 22.442 67.8646 22.3703 67.8869C22.2987 67.9083 22.2219 67.919 22.14 67.919C22.1177 67.919 22.0958 67.9185 22.0744 67.9176C22.053 67.9157 22.0321 67.9129 22.0116 67.9092C21.98 67.9288 21.9642 67.9506 21.9642 67.9748C21.9642 67.999 21.9772 68.0167 22.0033 68.0279C22.0293 68.0381 22.0637 68.0455 22.1065 68.0502C22.1493 68.0539 22.1977 68.0567 22.2517 68.0586C22.3066 68.0595 22.3624 68.0628 22.4192 68.0683C22.4759 68.073 22.5313 68.0814 22.5853 68.0935C22.6402 68.1056 22.689 68.1251 22.7318 68.1521C22.7746 68.1791 22.809 68.2153 22.8351 68.2609C22.8611 68.3056 22.8742 68.3628 22.8742 68.4326C22.8742 68.4977 22.8584 68.5615 22.8267 68.6238C22.7951 68.6862 22.7486 68.7415 22.6872 68.7899C22.6257 68.8383 22.5504 68.8769 22.4611 68.9057C22.3717 68.9355 22.2694 68.9504 22.154 68.9504C22.0405 68.9504 21.9423 68.9397 21.8595 68.9183C21.7776 68.8969 21.7092 68.8685 21.6543 68.8332C21.6004 68.7987 21.5604 68.7587 21.5343 68.7131C21.5083 68.6675 21.4952 68.6201 21.4952 68.5708C21.4952 68.5066 21.5138 68.4531 21.5511 68.4103C21.5883 68.3675 21.6404 68.3331 21.7074 68.307C21.672 68.2856 21.6441 68.2581 21.6236 68.2247C21.6032 68.1912 21.5929 68.1479 21.5929 68.0949C21.5929 68.0735 21.5967 68.0511 21.6041 68.0279C21.6115 68.0037 21.6232 67.9804 21.639 67.9581C21.6557 67.9348 21.6762 67.9129 21.7004 67.8925C21.7246 67.872 21.7534 67.8539 21.7869 67.838C21.7116 67.798 21.652 67.7455 21.6083 67.6803C21.5646 67.6143 21.5427 67.5375 21.5427 67.45C21.5427 67.3775 21.558 67.3123 21.5888 67.2547C21.6195 67.196 21.6613 67.1467 21.7144 67.1067C21.7683 67.0658 21.8316 67.0346 21.9042 67.0132C21.9768 66.9909 22.0554 66.9797 22.14 66.9797C22.2629 66.9797 22.3717 67.003 22.4666 67.0495H22.9021ZM25.6745 67.0048L24.9013 68.8276C24.8883 68.8564 24.8725 68.8774 24.8538 68.8904C24.8352 68.9043 24.8055 68.9113 24.7645 68.9113H24.4407L24.7199 68.3251L24.142 67.0048H24.5245C24.558 67.0048 24.5835 67.0123 24.6012 67.0272C24.6198 67.042 24.6333 67.0597 24.6417 67.0802L24.879 67.7041C24.9013 67.7608 24.9194 67.819 24.9334 67.8785C24.9436 67.8487 24.9539 67.819 24.9641 67.7892C24.9743 67.7594 24.985 67.7301 24.9962 67.7013L25.2111 67.0802C25.2195 67.0588 25.2344 67.0411 25.2558 67.0272C25.2772 67.0123 25.3005 67.0048 25.3256 67.0048H25.6745ZM26.7408 66.9825C26.8506 66.9825 26.9506 66.9997 27.0409 67.0341C27.1312 67.0686 27.2084 67.1179 27.2726 67.1821C27.3377 67.2463 27.388 67.3244 27.4233 67.4166C27.4596 67.5077 27.4777 67.6106 27.4777 67.725C27.4777 67.8404 27.4596 67.9446 27.4233 68.0376C27.388 68.1297 27.3377 68.2084 27.2726 68.2735C27.2084 68.3377 27.1312 68.3875 27.0409 68.4228C26.9506 68.4573 26.8506 68.4745 26.7408 68.4745C26.6301 68.4745 26.5291 68.4573 26.438 68.4228C26.3477 68.3875 26.2696 68.3377 26.2035 68.2735C26.1384 68.2084 26.0876 68.1297 26.0514 68.0376C26.016 67.9446 25.9983 67.8404 25.9983 67.725C25.9983 67.6106 26.016 67.5077 26.0514 67.4166C26.0876 67.3244 26.1384 67.2463 26.2035 67.1821C26.2696 67.1179 26.3477 67.0686 26.438 67.0341C26.5291 66.9997 26.6301 66.9825 26.7408 66.9825ZM26.7408 68.1535C26.8404 68.1535 26.9134 68.1186 26.9599 68.0488C27.0074 67.9781 27.0311 67.8711 27.0311 67.7278C27.0311 67.5845 27.0074 67.478 26.9599 67.4082C26.9134 67.3384 26.8404 67.3035 26.7408 67.3035C26.6385 67.3035 26.5636 67.3384 26.5161 67.4082C26.4687 67.478 26.4449 67.5845 26.4449 67.7278C26.4449 67.8711 26.4687 67.9781 26.5161 68.0488C26.5636 68.1186 26.6385 68.1535 26.7408 68.1535ZM29.3146 67.0048V68.4521H29.0466C28.9927 68.4521 28.9573 68.428 28.9406 68.3796L28.9155 68.2958C28.8875 68.3228 28.8587 68.3475 28.8289 68.3698C28.7991 68.3912 28.767 68.4098 28.7326 68.4256C28.6991 68.4405 28.6624 68.4521 28.6224 68.4605C28.5833 68.4698 28.5405 68.4745 28.494 68.4745C28.4149 68.4745 28.3446 68.461 28.2832 68.434C28.2227 68.4061 28.1716 68.3675 28.1297 68.3182C28.0878 68.2688 28.0562 68.2107 28.0348 68.1437C28.0134 68.0767 28.0027 68.0032 28.0027 67.9232V67.0048H28.4353V67.9232C28.4353 67.9948 28.4516 68.0502 28.4842 68.0893C28.5168 68.1283 28.5647 68.1479 28.6279 68.1479C28.6754 68.1479 28.7196 68.1381 28.7605 68.1186C28.8024 68.0981 28.8429 68.0707 28.882 68.0362V67.0048H29.3146ZM30.3343 67.2281C30.379 67.15 30.4302 67.0886 30.4879 67.0439C30.5465 66.9992 30.6135 66.9769 30.6888 66.9769C30.754 66.9769 30.807 66.9923 30.848 67.023L30.82 67.3412C30.8154 67.3617 30.8075 67.3756 30.7963 67.3831C30.7861 67.3905 30.7717 67.3942 30.753 67.3942C30.7456 67.3942 30.7358 67.3938 30.7237 67.3928C30.7116 67.3919 30.6991 67.391 30.6861 67.39C30.673 67.3882 30.6595 67.3868 30.6456 67.3858C30.6326 67.384 30.6205 67.3831 30.6093 67.3831C30.546 67.3831 30.4953 67.3998 30.4572 67.4333C30.4199 67.4668 30.3883 67.5133 30.3623 67.5729V68.4521H29.9296V67.0048H30.1864C30.2078 67.0048 30.2255 67.0067 30.2394 67.0104C30.2543 67.0141 30.2664 67.0202 30.2757 67.0286C30.286 67.036 30.2934 67.0462 30.2981 67.0593C30.3036 67.0723 30.3083 67.0881 30.312 67.1067L30.3343 67.2281ZM32.2263 68.4521V67.0048H32.4942C32.5482 67.0048 32.5835 67.029 32.6003 67.0774L32.624 67.1556C32.6482 67.1304 32.6733 67.1076 32.6994 67.0872C32.7254 67.0658 32.7534 67.0476 32.7831 67.0327C32.8138 67.0169 32.8464 67.0048 32.8808 66.9965C32.9162 66.9871 32.9548 66.9825 32.9967 66.9825C33.0841 66.9825 33.1562 67.0053 33.213 67.0509C33.2707 67.0955 33.3144 67.1556 33.3442 67.2309C33.3684 67.1863 33.3977 67.1481 33.4321 67.1165C33.4675 67.0848 33.5052 67.0593 33.5452 67.0397C33.5861 67.0202 33.6289 67.0058 33.6736 66.9965C33.7192 66.9871 33.7643 66.9825 33.809 66.9825C33.8918 66.9825 33.9653 66.9951 34.0295 67.0202C34.0937 67.0444 34.1472 67.0802 34.19 67.1276C34.2337 67.1742 34.2667 67.2319 34.2891 67.3007C34.3114 67.3686 34.3226 67.4459 34.3226 67.5324V68.4521H33.8899V67.5324C33.8899 67.3826 33.8257 67.3077 33.6973 67.3077C33.6387 67.3077 33.5898 67.3272 33.5508 67.3663C33.5126 67.4045 33.4935 67.4598 33.4935 67.5324V68.4521H33.0609V67.5324C33.0609 67.4496 33.0446 67.3914 33.012 67.3579C32.9795 67.3244 32.9315 67.3077 32.8683 67.3077C32.8292 67.3077 32.792 67.3165 32.7566 67.3342C32.7222 67.3519 32.6896 67.3756 32.6589 67.4054V68.4521H32.2263ZM35.8218 67.5547C35.8218 67.5203 35.8171 67.4868 35.8078 67.4542C35.7994 67.4217 35.785 67.3928 35.7646 67.3677C35.745 67.3416 35.719 67.3207 35.6864 67.3049C35.6538 67.2891 35.6143 67.2812 35.5678 67.2812C35.4859 67.2812 35.4217 67.3049 35.3752 67.3524C35.3286 67.3989 35.2979 67.4663 35.283 67.5547H35.8218ZM35.2775 67.8059C35.2914 67.9269 35.3282 68.0148 35.3877 68.0697C35.4473 68.1237 35.524 68.1507 35.618 68.1507C35.6682 68.1507 35.7115 68.1446 35.7478 68.1325C35.7841 68.1204 35.8162 68.1069 35.8441 68.0921C35.8729 68.0772 35.899 68.0637 35.9223 68.0516C35.9465 68.0395 35.9716 68.0334 35.9976 68.0334C36.0321 68.0334 36.0581 68.046 36.0758 68.0711L36.2014 68.226C36.1567 68.2772 36.1084 68.3191 36.0562 68.3517C36.0051 68.3833 35.952 68.4084 35.8971 68.427C35.8432 68.4447 35.7887 68.4568 35.7338 68.4633C35.6799 68.4708 35.6282 68.4745 35.5789 68.4745C35.4775 68.4745 35.3821 68.4582 35.2928 68.4256C35.2044 68.3921 35.1267 68.3428 35.0597 68.2777C34.9937 68.2126 34.9411 68.1316 34.902 68.0348C34.8639 67.9381 34.8448 67.8255 34.8448 67.6971C34.8448 67.6003 34.8611 67.5087 34.8936 67.4221C34.9271 67.3356 34.9746 67.2598 35.036 67.1946C35.0983 67.1295 35.1732 67.0779 35.2607 67.0397C35.3491 67.0016 35.4487 66.9825 35.5594 66.9825C35.6552 66.9825 35.7427 66.9974 35.8218 67.0272C35.9018 67.0569 35.9702 67.1002 36.0269 67.157C36.0846 67.2137 36.1293 67.2835 36.1609 67.3663C36.1935 67.4482 36.2098 67.5412 36.2098 67.6454C36.2098 67.678 36.2084 67.7045 36.2056 67.725C36.2028 67.7455 36.1977 67.7618 36.1902 67.7738C36.1828 67.7859 36.1726 67.7943 36.1595 67.799C36.1474 67.8036 36.1316 67.8059 36.1121 67.8059H35.2775ZM36.7473 68.4521V67.0048H37.0153C37.0692 67.0048 37.1046 67.029 37.1213 67.0774L37.1451 67.1556C37.1692 67.1304 37.1944 67.1076 37.2204 67.0872C37.2465 67.0658 37.2744 67.0476 37.3042 67.0327C37.3349 67.0169 37.3674 67.0048 37.4019 66.9965C37.4372 66.9871 37.4758 66.9825 37.5177 66.9825C37.6052 66.9825 37.6773 67.0053 37.734 67.0509C37.7917 67.0955 37.8355 67.1556 37.8652 67.2309C37.8894 67.1863 37.9187 67.1481 37.9532 67.1165C37.9885 67.0848 38.0262 67.0593 38.0662 67.0397C38.1071 67.0202 38.1499 67.0058 38.1946 66.9965C38.2402 66.9871 38.2853 66.9825 38.33 66.9825C38.4128 66.9825 38.4863 66.9951 38.5505 67.0202C38.6147 67.0444 38.6682 67.0802 38.711 67.1276C38.7547 67.1742 38.7878 67.2319 38.8101 67.3007C38.8324 67.3686 38.8436 67.4459 38.8436 67.5324V68.4521H38.4109V67.5324C38.4109 67.3826 38.3467 67.3077 38.2183 67.3077C38.1597 67.3077 38.1109 67.3272 38.0718 67.3663C38.0336 67.4045 38.0146 67.4598 38.0146 67.5324V68.4521H37.5819V67.5324C37.5819 67.4496 37.5656 67.3914 37.5331 67.3579C37.5005 67.3244 37.4526 67.3077 37.3893 67.3077C37.3502 67.3077 37.313 67.3165 37.2776 67.3342C37.2432 67.3519 37.2107 67.3756 37.1799 67.4054V68.4521H36.7473ZM40.1097 66.9825C40.2195 66.9825 40.3195 66.9997 40.4098 67.0341C40.5001 67.0686 40.5773 67.1179 40.6415 67.1821C40.7066 67.2463 40.7569 67.3244 40.7922 67.4166C40.8285 67.5077 40.8466 67.6106 40.8466 67.725C40.8466 67.8404 40.8285 67.9446 40.7922 68.0376C40.7569 68.1297 40.7066 68.2084 40.6415 68.2735C40.5773 68.3377 40.5001 68.3875 40.4098 68.4228C40.3195 68.4573 40.2195 68.4745 40.1097 68.4745C39.999 68.4745 39.898 68.4573 39.8069 68.4228C39.7166 68.3875 39.6385 68.3377 39.5724 68.2735C39.5073 68.2084 39.4565 68.1297 39.4203 68.0376C39.3849 67.9446 39.3672 67.8404 39.3672 67.725C39.3672 67.6106 39.3849 67.5077 39.4203 67.4166C39.4565 67.3244 39.5073 67.2463 39.5724 67.1821C39.6385 67.1179 39.7166 67.0686 39.8069 67.0341C39.898 66.9997 39.999 66.9825 40.1097 66.9825ZM40.1097 68.1535C40.2093 68.1535 40.2823 68.1186 40.3288 68.0488C40.3763 67.9781 40.4 67.8711 40.4 67.7278C40.4 67.5845 40.3763 67.478 40.3288 67.4082C40.2823 67.3384 40.2093 67.3035 40.1097 67.3035C40.0074 67.3035 39.9325 67.3384 39.885 67.4082C39.8376 67.478 39.8138 67.5845 39.8138 67.7278C39.8138 67.8711 39.8376 67.9781 39.885 68.0488C39.9325 68.1186 40.0074 68.1535 40.1097 68.1535ZM41.7903 67.2281C41.8349 67.15 41.8861 67.0886 41.9438 67.0439C42.0024 66.9992 42.0694 66.9769 42.1448 66.9769C42.2099 66.9769 42.263 66.9923 42.3039 67.023L42.276 67.3412C42.2713 67.3617 42.2634 67.3756 42.2523 67.3831C42.242 67.3905 42.2276 67.3942 42.209 67.3942C42.2015 67.3942 42.1918 67.3938 42.1797 67.3928C42.1676 67.3919 42.155 67.391 42.142 67.39C42.129 67.3882 42.1155 67.3868 42.1015 67.3858C42.0885 67.384 42.0764 67.3831 42.0652 67.3831C42.002 67.3831 41.9513 67.3998 41.9131 67.4333C41.8759 67.4668 41.8442 67.5133 41.8182 67.5729V68.4521H41.3855V67.0048H41.6423C41.6637 67.0048 41.6814 67.0067 41.6954 67.0104C41.7103 67.0141 41.7224 67.0202 41.7317 67.0286C41.7419 67.036 41.7493 67.0462 41.754 67.0593C41.7596 67.0723 41.7642 67.0881 41.768 67.1067L41.7903 67.2281ZM44.1471 67.0048L43.3739 68.8276C43.3609 68.8564 43.3451 68.8774 43.3265 68.8904C43.3079 68.9043 43.2781 68.9113 43.2371 68.9113H42.9133L43.1925 68.3251L42.6147 67.0048H42.9971C43.0306 67.0048 43.0562 67.0123 43.0738 67.0272C43.0925 67.042 43.106 67.0597 43.1143 67.0802L43.3516 67.7041C43.3739 67.7608 43.3921 67.819 43.406 67.8785C43.4163 67.8487 43.4265 67.819 43.4367 67.7892C43.447 67.7594 43.4577 67.7301 43.4688 67.7013L43.6838 67.0802C43.6921 67.0588 43.707 67.0411 43.7284 67.0272C43.7498 67.0123 43.7731 67.0048 43.7982 67.0048H44.1471ZM47.5669 67.0048L47.1174 68.4521H46.7657C46.7471 68.4521 46.7313 68.4466 46.7183 68.4354C46.7053 68.4242 46.695 68.4056 46.6876 68.3796L46.481 67.658C46.4708 67.6254 46.4615 67.5933 46.4531 67.5617C46.4457 67.5301 46.4387 67.498 46.4322 67.4654C46.4257 67.498 46.4182 67.5305 46.4098 67.5631C46.4024 67.5957 46.3936 67.6282 46.3833 67.6608L46.174 68.3796C46.16 68.428 46.1293 68.4521 46.0819 68.4521H45.7469L45.2975 67.0048H45.6436C45.6743 67.0048 45.6999 67.0123 45.7204 67.0272C45.7418 67.0411 45.7562 67.0588 45.7636 67.0802L45.9088 67.7292C45.9209 67.7785 45.9316 67.8264 45.9409 67.8729C45.9502 67.9185 45.9586 67.9646 45.966 68.0111C45.9781 67.9646 45.9907 67.9185 46.0037 67.8729C46.0177 67.8264 46.0325 67.7785 46.0484 67.7292L46.2298 67.0788C46.2372 67.0574 46.2512 67.0397 46.2717 67.0258C46.2921 67.0109 46.3163 67.0034 46.3442 67.0034H46.5368C46.5676 67.0034 46.5931 67.0109 46.6136 67.0258C46.635 67.0397 46.6494 67.0574 46.6569 67.0788L46.8299 67.7292C46.8439 67.7785 46.8574 67.8264 46.8704 67.8729C46.8844 67.9195 46.8969 67.9665 46.9081 68.0139C46.9155 67.9674 46.9244 67.9209 46.9346 67.8743C46.9449 67.8278 46.9565 67.7794 46.9695 67.7292L47.123 67.0802C47.1305 67.0588 47.1444 67.0411 47.1649 67.0272C47.1854 67.0123 47.2096 67.0048 47.2375 67.0048H47.5669ZM48.4848 67.0048V68.4521H48.0522V67.0048H48.4848ZM48.5295 66.6085C48.5295 66.6429 48.5225 66.6754 48.5086 66.7061C48.4946 66.7359 48.4755 66.7624 48.4513 66.7857C48.4271 66.808 48.3988 66.8262 48.3662 66.8401C48.3346 66.8532 48.3006 66.8597 48.2643 66.8597C48.229 66.8597 48.1959 66.8532 48.1652 66.8401C48.1345 66.8262 48.1071 66.808 48.0829 66.7857C48.0596 66.7624 48.041 66.7359 48.027 66.7061C48.014 66.6754 48.0075 66.6429 48.0075 66.6085C48.0075 66.5731 48.014 66.5401 48.027 66.5094C48.041 66.4787 48.0596 66.4517 48.0829 66.4284C48.1071 66.4051 48.1345 66.387 48.1652 66.374C48.1959 66.3609 48.229 66.3544 48.2643 66.3544C48.3006 66.3544 48.3346 66.3609 48.3662 66.374C48.3988 66.387 48.4271 66.4051 48.4513 66.4284C48.4755 66.4517 48.4946 66.4787 48.5086 66.5094C48.5225 66.5401 48.5295 66.5731 48.5295 66.6085ZM49.6254 68.4745C49.5565 68.4745 49.4956 68.4647 49.4426 68.4452C49.3904 68.4247 49.3462 68.3963 49.31 68.36C49.2746 68.3228 49.2476 68.2782 49.229 68.226C49.2104 68.1739 49.2011 68.1158 49.2011 68.0516V67.3035H49.0783C49.0559 67.3035 49.0369 67.2965 49.0211 67.2826C49.0052 67.2677 48.9973 67.2463 48.9973 67.2184V67.0495L49.2276 67.0048L49.3128 66.6517C49.3239 66.6071 49.3556 66.5847 49.4077 66.5847H49.6338V67.0076H49.9925V67.3035H49.6338V68.0223C49.6338 68.0558 49.6417 68.0837 49.6575 68.106C49.6742 68.1274 49.698 68.1381 49.7287 68.1381C49.7445 68.1381 49.7575 68.1367 49.7677 68.1339C49.7789 68.1302 49.7882 68.1265 49.7957 68.1228C49.804 68.1181 49.8115 68.1144 49.818 68.1116C49.8254 68.1079 49.8338 68.106 49.8431 68.106C49.8561 68.106 49.8664 68.1093 49.8738 68.1158C49.8822 68.1214 49.8906 68.1307 49.8989 68.1437L50.0301 68.3489C49.9743 68.3907 49.9115 68.4224 49.8417 68.4438C49.7719 68.4642 49.6998 68.4745 49.6254 68.4745ZM50.9325 67.1318C50.9847 67.0872 51.0409 67.0513 51.1014 67.0244C51.1628 66.9965 51.2359 66.9825 51.3205 66.9825C51.3996 66.9825 51.4694 66.9965 51.5299 67.0244C51.5913 67.0513 51.643 67.0895 51.6848 67.1388C51.7267 67.1872 51.7583 67.2453 51.7797 67.3133C51.8011 67.3803 51.8118 67.4533 51.8118 67.5324V68.4521H51.3792V67.5324C51.3792 67.4617 51.3629 67.4068 51.3303 67.3677C51.2978 67.3277 51.2498 67.3077 51.1866 67.3077C51.1391 67.3077 51.0944 67.3179 51.0526 67.3384C51.0116 67.3579 50.9716 67.3849 50.9325 67.4193V68.4521H50.4999V66.3628H50.9325V67.1318ZM53.8977 68.4745C53.8288 68.4745 53.7679 68.4647 53.7149 68.4452C53.6628 68.4247 53.6186 68.3963 53.5823 68.36C53.5469 68.3228 53.5199 68.2782 53.5013 68.226C53.4827 68.1739 53.4734 68.1158 53.4734 68.0516V67.3035H53.3506C53.3283 67.3035 53.3092 67.2965 53.2934 67.2826C53.2776 67.2677 53.2696 67.2463 53.2696 67.2184V67.0495L53.4999 67.0048L53.5851 66.6517C53.5962 66.6071 53.6279 66.5847 53.68 66.5847H53.9061V67.0076H54.2648V67.3035H53.9061V68.0223C53.9061 68.0558 53.914 68.0837 53.9298 68.106C53.9466 68.1274 53.9703 68.1381 54.001 68.1381C54.0168 68.1381 54.0298 68.1367 54.0401 68.1339C54.0512 68.1302 54.0605 68.1265 54.068 68.1228C54.0763 68.1181 54.0838 68.1144 54.0903 68.1116C54.0977 68.1079 54.1061 68.106 54.1154 68.106C54.1285 68.106 54.1387 68.1093 54.1461 68.1158C54.1545 68.1214 54.1629 68.1307 54.1713 68.1437L54.3024 68.3489C54.2466 68.3907 54.1838 68.4224 54.114 68.4438C54.0442 68.4642 53.9721 68.4745 53.8977 68.4745ZM55.2049 67.1318C55.257 67.0872 55.3133 67.0513 55.3737 67.0244C55.4352 66.9965 55.5082 66.9825 55.5929 66.9825C55.672 66.9825 55.7417 66.9965 55.8022 67.0244C55.8636 67.0513 55.9153 67.0895 55.9571 67.1388C55.999 67.1872 56.0306 67.2453 56.052 67.3133C56.0734 67.3803 56.0841 67.4533 56.0841 67.5324V68.4521H55.6515V67.5324C55.6515 67.4617 55.6352 67.4068 55.6026 67.3677C55.5701 67.3277 55.5222 67.3077 55.4589 67.3077C55.4114 67.3077 55.3668 67.3179 55.3249 67.3384C55.284 67.3579 55.2439 67.3849 55.2049 67.4193V68.4521H54.7722V66.3628H55.2049V67.1318ZM57.5854 67.5547C57.5854 67.5203 57.5807 67.4868 57.5714 67.4542C57.563 67.4217 57.5486 67.3928 57.5282 67.3677C57.5086 67.3416 57.4826 67.3207 57.45 67.3049C57.4174 67.2891 57.3779 67.2812 57.3314 67.2812C57.2495 67.2812 57.1853 67.3049 57.1388 67.3524C57.0922 67.3989 57.0615 67.4663 57.0466 67.5547H57.5854ZM57.0411 67.8059C57.055 67.9269 57.0918 68.0148 57.1513 68.0697C57.2109 68.1237 57.2876 68.1507 57.3816 68.1507C57.4319 68.1507 57.4751 68.1446 57.5114 68.1325C57.5477 68.1204 57.5798 68.1069 57.6077 68.0921C57.6366 68.0772 57.6626 68.0637 57.6859 68.0516C57.7101 68.0395 57.7352 68.0334 57.7612 68.0334C57.7957 68.0334 57.8217 68.046 57.8394 68.0711L57.965 68.226C57.9203 68.2772 57.872 68.3191 57.8199 68.3517C57.7687 68.3833 57.7156 68.4084 57.6607 68.427C57.6068 68.4447 57.5523 68.4568 57.4975 68.4633C57.4435 68.4708 57.3918 68.4745 57.3425 68.4745C57.2411 68.4745 57.1457 68.4582 57.0564 68.4256C56.968 68.3921 56.8903 68.3428 56.8233 68.2777C56.7573 68.2126 56.7047 68.1316 56.6656 68.0348C56.6275 67.9381 56.6084 67.8255 56.6084 67.6971C56.6084 67.6003 56.6247 67.5087 56.6572 67.4221C56.6907 67.3356 56.7382 67.2598 56.7996 67.1946C56.8619 67.1295 56.9369 67.0779 57.0243 67.0397C57.1127 67.0016 57.2123 66.9825 57.323 66.9825C57.4188 66.9825 57.5063 66.9974 57.5854 67.0272C57.6654 67.0569 57.7338 67.1002 57.7905 67.157C57.8482 67.2137 57.8929 67.2835 57.9245 67.3663C57.9571 67.4482 57.9734 67.5412 57.9734 67.6454C57.9734 67.678 57.972 67.7045 57.9692 67.725C57.9664 67.7455 57.9613 67.7618 57.9538 67.7738C57.9464 67.7859 57.9362 67.7943 57.9231 67.799C57.911 67.8036 57.8952 67.8059 57.8757 67.8059H57.0411ZM59.8771 67.1611C59.905 67.1351 59.9339 67.1109 59.9636 67.0886C59.9934 67.0662 60.0251 67.0476 60.0586 67.0327C60.093 67.0169 60.1297 67.0048 60.1688 66.9965C60.2088 66.9871 60.2521 66.9825 60.2986 66.9825C60.3777 66.9825 60.4475 66.9965 60.508 67.0244C60.5694 67.0513 60.621 67.0895 60.6629 67.1388C60.7048 67.1872 60.7364 67.2453 60.7578 67.3133C60.7792 67.3803 60.7899 67.4533 60.7899 67.5324V68.4521H60.3572V67.5324C60.3572 67.4617 60.3409 67.4068 60.3084 67.3677C60.2758 67.3277 60.2279 67.3077 60.1646 67.3077C60.1172 67.3077 60.0725 67.3179 60.0306 67.3384C59.9897 67.3579 59.9497 67.3849 59.9106 67.4193V68.4521H59.4779V67.0048H59.7459C59.7999 67.0048 59.8352 67.029 59.852 67.0774L59.8771 67.1611ZM62.058 66.9825C62.1678 66.9825 62.2679 66.9997 62.3581 67.0341C62.4484 67.0686 62.5256 67.1179 62.5898 67.1821C62.6549 67.2463 62.7052 67.3244 62.7405 67.4166C62.7768 67.5077 62.795 67.6106 62.795 67.725C62.795 67.8404 62.7768 67.9446 62.7405 68.0376C62.7052 68.1297 62.6549 68.2084 62.5898 68.2735C62.5256 68.3377 62.4484 68.3875 62.3581 68.4228C62.2679 68.4573 62.1678 68.4745 62.058 68.4745C61.9473 68.4745 61.8464 68.4573 61.7552 68.4228C61.6649 68.3875 61.5868 68.3377 61.5207 68.2735C61.4556 68.2084 61.4049 68.1297 61.3686 68.0376C61.3332 67.9446 61.3155 67.8404 61.3155 67.725C61.3155 67.6106 61.3332 67.5077 61.3686 67.4166C61.4049 67.3244 61.4556 67.2463 61.5207 67.1821C61.5868 67.1179 61.6649 67.0686 61.7552 67.0341C61.8464 66.9997 61.9473 66.9825 62.058 66.9825ZM62.058 68.1535C62.1576 68.1535 62.2306 68.1186 62.2772 68.0488C62.3246 67.9781 62.3483 67.8711 62.3483 67.7278C62.3483 67.5845 62.3246 67.478 62.2772 67.4082C62.2306 67.3384 62.1576 67.3035 62.058 67.3035C61.9557 67.3035 61.8808 67.3384 61.8333 67.4082C61.7859 67.478 61.7622 67.5845 61.7622 67.7278C61.7622 67.8711 61.7859 67.9781 61.8333 68.0488C61.8808 68.1186 61.9557 68.1535 62.058 68.1535ZM63.7665 68.0586C63.7991 68.0939 63.8344 68.119 63.8726 68.1339C63.9107 68.1488 63.9493 68.1563 63.9884 68.1563C64.0294 68.1563 64.067 68.1488 64.1015 68.1339C64.1359 68.1181 64.1652 68.093 64.1894 68.0586C64.2145 68.0232 64.2341 67.9772 64.248 67.9204C64.262 67.8627 64.269 67.792 64.269 67.7082C64.269 67.6357 64.2634 67.5743 64.2522 67.524C64.242 67.4728 64.2262 67.4314 64.2048 67.3998C64.1843 67.3672 64.1582 67.344 64.1266 67.33C64.0959 67.3151 64.0605 67.3077 64.0205 67.3077C63.9675 67.3077 63.9214 67.3193 63.8824 67.3426C63.8433 67.3658 63.8047 67.3998 63.7665 67.4445V68.0586ZM63.7665 67.1584C63.8223 67.1053 63.8833 67.063 63.9493 67.0313C64.0163 66.9988 64.0908 66.9825 64.1727 66.9825C64.2545 66.9825 64.329 66.9992 64.396 67.0327C64.463 67.0662 64.5202 67.1142 64.5676 67.1765C64.6151 67.2379 64.6514 67.3123 64.6765 67.3998C64.7025 67.4873 64.7156 67.585 64.7156 67.6929C64.7156 67.8101 64.7007 67.9167 64.6709 68.0125C64.6411 68.1083 64.5988 68.1907 64.5439 68.2595C64.4899 68.3275 64.4253 68.3805 64.3499 68.4187C64.2745 68.4559 64.1913 68.4745 64.1001 68.4745C64.0563 68.4745 64.0173 68.4703 63.9828 68.4619C63.9484 68.4535 63.9168 68.4419 63.8879 68.427C63.8591 68.4112 63.8326 68.3926 63.8084 68.3712C63.7851 68.3498 63.7623 68.3265 63.74 68.3014L63.7246 68.374C63.7172 68.4038 63.7051 68.4242 63.6884 68.4354C63.6716 68.4466 63.6493 68.4521 63.6214 68.4521H63.3338V66.3628H63.7665V67.1584ZM65.6904 66.3628V68.4521H65.2577V66.3628H65.6904ZM67.204 67.5547C67.204 67.5203 67.1994 67.4868 67.1901 67.4542C67.1817 67.4217 67.1673 67.3928 67.1468 67.3677C67.1273 67.3416 67.1012 67.3207 67.0687 67.3049C67.0361 67.2891 66.9965 67.2812 66.95 67.2812C66.8681 67.2812 66.8039 67.3049 66.7574 67.3524C66.7109 67.3989 66.6802 67.4663 66.6653 67.5547H67.204ZM66.6597 67.8059C66.6737 67.9269 66.7104 68.0148 66.77 68.0697C66.8295 68.1237 66.9063 68.1507 67.0003 68.1507C67.0505 68.1507 67.0938 68.1446 67.1301 68.1325C67.1664 68.1204 67.1985 68.1069 67.2264 68.0921C67.2552 68.0772 67.2813 68.0637 67.3045 68.0516C67.3287 68.0395 67.3538 68.0334 67.3799 68.0334C67.4143 68.0334 67.4404 68.046 67.458 68.0711L67.5837 68.226C67.539 68.2772 67.4906 68.3191 67.4385 68.3517C67.3873 68.3833 67.3343 68.4084 67.2794 68.427C67.2254 68.4447 67.171 68.4568 67.1161 68.4633C67.0621 68.4708 67.0105 68.4745 66.9612 68.4745C66.8598 68.4745 66.7644 68.4582 66.6751 68.4256C66.5867 68.3921 66.509 68.3428 66.442 68.2777C66.3759 68.2126 66.3234 68.1316 66.2843 68.0348C66.2461 67.9381 66.2271 67.8255 66.2271 67.6971C66.2271 67.6003 66.2433 67.5087 66.2759 67.4221C66.3094 67.3356 66.3569 67.2598 66.4183 67.1946C66.4806 67.1295 66.5555 67.0779 66.643 67.0397C66.7314 67.0016 66.8309 66.9825 66.9416 66.9825C67.0375 66.9825 67.1249 66.9974 67.204 67.0272C67.2841 67.0569 67.3524 67.1002 67.4092 67.157C67.4669 67.2137 67.5116 67.2835 67.5432 67.3663C67.5758 67.4482 67.592 67.5412 67.592 67.6454C67.592 67.678 67.5906 67.7045 67.5878 67.725C67.5851 67.7455 67.5799 67.7618 67.5725 67.7738C67.5651 67.7859 67.5548 67.7943 67.5418 67.799C67.5297 67.8036 67.5139 67.8059 67.4943 67.8059H66.6597ZM69.5293 68.0586C69.5618 68.0939 69.5972 68.119 69.6353 68.1339C69.6735 68.1488 69.7121 68.1563 69.7512 68.1563C69.7921 68.1563 69.8298 68.1488 69.8642 68.1339C69.8987 68.1181 69.928 68.093 69.9522 68.0586C69.9773 68.0232 69.9968 67.9772 70.0108 67.9204C70.0247 67.8627 70.0317 67.792 70.0317 67.7082C70.0317 67.6357 70.0261 67.5743 70.015 67.524C70.0047 67.4728 69.9889 67.4314 69.9675 67.3998C69.947 67.3672 69.921 67.344 69.8893 67.33C69.8586 67.3151 69.8233 67.3077 69.7833 67.3077C69.7302 67.3077 69.6842 67.3193 69.6451 67.3426C69.606 67.3658 69.5674 67.3998 69.5293 67.4445V68.0586ZM69.5293 67.1584C69.5851 67.1053 69.646 67.063 69.7121 67.0313C69.7791 66.9988 69.8535 66.9825 69.9354 66.9825C70.0173 66.9825 70.0917 66.9992 70.1587 67.0327C70.2257 67.0662 70.2829 67.1142 70.3304 67.1765C70.3778 67.2379 70.4141 67.3123 70.4392 67.3998C70.4653 67.4873 70.4783 67.585 70.4783 67.6929C70.4783 67.8101 70.4634 67.9167 70.4337 68.0125C70.4039 68.1083 70.3616 68.1907 70.3067 68.2595C70.2527 68.3275 70.188 68.3805 70.1127 68.4187C70.0373 68.4559 69.954 68.4745 69.8628 68.4745C69.8191 68.4745 69.78 68.4703 69.7456 68.4619C69.7112 68.4535 69.6795 68.4419 69.6507 68.427C69.6218 68.4112 69.5953 68.3926 69.5711 68.3712C69.5479 68.3498 69.5251 68.3265 69.5027 68.3014L69.4874 68.374C69.4799 68.4038 69.4679 68.4242 69.4511 68.4354C69.4344 68.4466 69.412 68.4521 69.3841 68.4521H69.0966V66.3628H69.5293V67.1584ZM71.6876 66.9825C71.7974 66.9825 71.8974 66.9997 71.9877 67.0341C72.0779 67.0686 72.1552 67.1179 72.2194 67.1821C72.2845 67.2463 72.3347 67.3244 72.3701 67.4166C72.4064 67.5077 72.4245 67.6106 72.4245 67.725C72.4245 67.8404 72.4064 67.9446 72.3701 68.0376C72.3347 68.1297 72.2845 68.2084 72.2194 68.2735C72.1552 68.3377 72.0779 68.3875 71.9877 68.4228C71.8974 68.4573 71.7974 68.4745 71.6876 68.4745C71.5769 68.4745 71.4759 68.4573 71.3847 68.4228C71.2945 68.3875 71.2163 68.3377 71.1503 68.2735C71.0851 68.2084 71.0344 68.1297 70.9981 68.0376C70.9628 67.9446 70.9451 67.8404 70.9451 67.725C70.9451 67.6106 70.9628 67.5077 70.9981 67.4166C71.0344 67.3244 71.0851 67.2463 71.1503 67.1821C71.2163 67.1179 71.2945 67.0686 71.3847 67.0341C71.4759 66.9997 71.5769 66.9825 71.6876 66.9825ZM71.6876 68.1535C71.7872 68.1535 71.8602 68.1186 71.9067 68.0488C71.9542 67.9781 71.9779 67.8711 71.9779 67.7278C71.9779 67.5845 71.9542 67.478 71.9067 67.4082C71.8602 67.3384 71.7872 67.3035 71.6876 67.3035C71.5852 67.3035 71.5103 67.3384 71.4629 67.4082C71.4154 67.478 71.3917 67.5845 71.3917 67.7278C71.3917 67.8711 71.4154 67.9781 71.4629 68.0488C71.5103 68.1186 71.5852 68.1535 71.6876 68.1535ZM73.6305 66.9825C73.7403 66.9825 73.8404 66.9997 73.9306 67.0341C74.0209 67.0686 74.0981 67.1179 74.1623 67.1821C74.2274 67.2463 74.2777 67.3244 74.313 67.4166C74.3493 67.5077 74.3675 67.6106 74.3675 67.725C74.3675 67.8404 74.3493 67.9446 74.313 68.0376C74.2777 68.1297 74.2274 68.2084 74.1623 68.2735C74.0981 68.3377 74.0209 68.3875 73.9306 68.4228C73.8404 68.4573 73.7403 68.4745 73.6305 68.4745C73.5198 68.4745 73.4189 68.4573 73.3277 68.4228C73.2374 68.3875 73.1593 68.3377 73.0932 68.2735C73.0281 68.2084 72.9774 68.1297 72.9411 68.0376C72.9057 67.9446 72.888 67.8404 72.888 67.725C72.888 67.6106 72.9057 67.5077 72.9411 67.4166C72.9774 67.3244 73.0281 67.2463 73.0932 67.1821C73.1593 67.1179 73.2374 67.0686 73.3277 67.0341C73.4189 66.9997 73.5198 66.9825 73.6305 66.9825ZM73.6305 68.1535C73.7301 68.1535 73.8031 68.1186 73.8497 68.0488C73.8971 67.9781 73.9208 67.8711 73.9208 67.7278C73.9208 67.5845 73.8971 67.478 73.8497 67.4082C73.8031 67.3384 73.7301 67.3035 73.6305 67.3035C73.5282 67.3035 73.4533 67.3384 73.4058 67.4082C73.3584 67.478 73.3347 67.5845 73.3347 67.7278C73.3347 67.8711 73.3584 67.9781 73.4058 68.0488C73.4533 68.1186 73.5282 68.1535 73.6305 68.1535ZM75.339 66.3628V67.5338H75.4032C75.4302 67.5338 75.4507 67.5301 75.4646 67.5226C75.4786 67.5142 75.4925 67.5008 75.5065 67.4821L75.78 67.0746C75.7968 67.0513 75.8159 67.0341 75.8373 67.023C75.8587 67.0109 75.8861 67.0048 75.9196 67.0048H76.316L75.9419 67.5198C75.9066 67.5664 75.8647 67.6045 75.8163 67.6343C75.8377 67.6501 75.8573 67.6687 75.875 67.6901C75.8926 67.7106 75.9094 67.7338 75.9252 67.7599L76.3327 68.4521H75.9419C75.9094 68.4521 75.8815 68.447 75.8582 68.4368C75.8349 68.4256 75.8154 68.4066 75.7996 68.3796L75.526 67.8674C75.513 67.8441 75.4995 67.8292 75.4856 67.8227C75.4716 67.8153 75.4507 67.8115 75.4228 67.8115H75.339V68.4521H74.9064V66.3628H75.339Z" fill="#28741C" fill-opacity="0.6"/>
<path d="M28.4593 59.167V58.6551H28.8697V59.167H28.4593ZM26.818 59.167C26.3881 59.167 26.0586 59.081 25.8293 58.9091C25.6027 58.7345 25.4893 58.4818 25.4893 58.1509C25.4893 58.0884 25.4932 58.0233 25.501 57.9555C25.5089 57.8878 25.518 57.8227 25.5284 57.7601C25.5388 57.6976 25.5492 57.6429 25.5597 57.596C25.5701 57.5465 25.5779 57.5087 25.5831 57.4827L26.1654 57.596C26.1576 57.6351 26.1472 57.6859 26.1341 57.7484C26.1211 57.8109 26.1094 57.8774 26.099 57.9477C26.0911 58.0155 26.0872 58.0806 26.0872 58.1431C26.0872 58.2786 26.1172 58.3841 26.1771 58.4597C26.237 58.5326 26.323 58.5834 26.435 58.6121C26.5497 58.6407 26.6891 58.6551 26.8532 58.6551H27.8614V57.2013H28.4593V59.167H26.818ZM28.8697 59.167V58.6551C28.8983 58.6551 28.9179 58.6785 28.9283 58.7254C28.9413 58.7697 28.9478 58.8309 28.9478 58.9091C28.9478 58.9872 28.9413 59.0498 28.9283 59.0966C28.9179 59.1435 28.8983 59.167 28.8697 59.167ZM26.7242 56.4549V56.0407H27.2362V56.4549H26.7242ZM26.31 57.0763V56.5995H26.8805V57.0763H26.31ZM27.0798 57.0763V56.5995H27.6504V57.0763H27.0798ZM29.3397 59.167V58.6551H31.0045L30.7973 58.8153V58.1822C30.7973 58.0311 30.7504 57.9165 30.6567 57.8383C30.5629 57.7575 30.4118 57.7172 30.2033 57.7172C30.146 57.7172 30.0692 57.7211 29.9728 57.7289C29.8764 57.7367 29.7709 57.7484 29.6562 57.7641L29.6015 57.2951C29.7109 57.269 29.8217 57.2469 29.9337 57.2287C30.0483 57.2104 30.159 57.2013 30.2659 57.2013C30.4847 57.2013 30.6788 57.2417 30.8481 57.3225C31.0175 57.4006 31.1504 57.5126 31.2467 57.6585C31.3457 57.8018 31.3952 57.9764 31.3952 58.1822V59.167H29.3397ZM29.3397 59.167C29.311 59.167 29.2915 59.1435 29.2811 59.0966C29.268 59.0498 29.2615 58.9872 29.2615 58.9091C29.2615 58.8309 29.268 58.7697 29.2811 58.7254C29.2915 58.6785 29.311 58.6551 29.3397 58.6551V59.167ZM33.0363 59.167V58.6551H33.4701V59.167H33.0363ZM32.4423 59.167V56.4197H33.0363V59.167H32.4423ZM33.4701 59.167V58.6551C33.5014 58.6551 33.5222 58.6785 33.5326 58.7254C33.5431 58.7697 33.5483 58.8309 33.5483 58.9091C33.5483 58.9872 33.5431 59.0498 33.5326 59.0966C33.5222 59.1435 33.5014 59.167 33.4701 59.167ZM34.9418 59.167V58.6551H35.3521V59.167H34.9418ZM33.9374 59.167V58.6551H34.7073L34.3439 58.956V57.2013H34.9418V59.167H33.9374ZM33.9374 59.167C33.9088 59.167 33.8892 59.1435 33.8788 59.0966C33.8658 59.0498 33.8593 58.9872 33.8593 58.9091C33.8593 58.8309 33.8658 58.7697 33.8788 58.7254C33.8892 58.6785 33.9088 58.6551 33.9374 58.6551V59.167ZM35.3521 59.167V58.6551C35.3808 58.6551 35.4003 58.6785 35.4107 58.7254C35.4237 58.7697 35.4303 58.8309 35.4303 58.9091C35.4303 58.9872 35.4237 59.0498 35.4107 59.0966C35.4003 59.1435 35.3808 59.167 35.3521 59.167ZM34.3439 60.0424V59.5656H34.9457V60.0424H34.3439ZM36.256 59.167V56.4197H36.8539V59.167H36.256ZM35.8222 59.167V58.6551H36.256V59.167H35.8222ZM35.8222 59.167C35.7936 59.167 35.774 59.1435 35.7636 59.0966C35.7506 59.0498 35.7441 58.9872 35.7441 58.9091C35.7441 58.8309 35.7506 58.7697 35.7636 58.7254C35.774 58.6785 35.7936 58.6551 35.8222 58.6551V59.167ZM37.9288 59.167V56.4197H38.5228V59.167H37.9288ZM41.8091 59.167C41.5902 59.167 41.4053 59.1318 41.2541 59.0615C41.1056 58.9911 40.9936 58.8843 40.9181 58.741C40.8451 58.5977 40.8086 58.418 40.8086 58.2017C40.8086 57.9829 40.8451 57.7992 40.9181 57.6507C40.9936 57.5022 41.1056 57.3902 41.2541 57.3146C41.4053 57.2391 41.5902 57.2013 41.8091 57.2013H42.7196V58.8895H42.1217V57.6116L42.2429 57.7132H41.8091C41.7205 57.7132 41.6462 57.725 41.5863 57.7484C41.5264 57.7693 41.4808 57.8149 41.4495 57.8852C41.4209 57.9529 41.4066 58.0584 41.4066 58.2017C41.4066 58.3346 41.4196 58.4336 41.4456 58.4987C41.4717 58.5639 41.5147 58.6069 41.5746 58.6277C41.6345 58.6459 41.7127 58.6551 41.8091 58.6551H43.126V59.167H41.8091ZM43.126 59.167V58.6551C43.1573 58.6551 43.1781 58.6785 43.1886 58.7254C43.199 58.7697 43.2042 58.8309 43.2042 58.9091C43.2042 58.9872 43.199 59.0498 43.1886 59.0966C43.1781 59.1435 43.1573 59.167 43.126 59.167ZM41.301 57.0059V56.5292H41.9029V57.0059H41.301ZM41.8364 57.0059V56.5292H42.4382V57.0059H41.8364ZM44.88 59.167V58.6551H45.388V59.167H44.88ZM45.388 59.167V58.6551C45.4193 58.6551 45.4401 58.6785 45.4505 58.7254C45.4609 58.7697 45.4661 58.8309 45.4661 58.9091C45.4661 58.9872 45.4609 59.0498 45.4505 59.0966C45.4401 59.1435 45.4193 59.167 45.388 59.167ZM43.5943 59.167V58.6551H44.6455L44.282 58.956V57.2013H44.88V59.167H43.5943ZM43.5943 59.167C43.5656 59.167 43.5461 59.1435 43.5356 59.0966C43.5226 59.0498 43.5161 58.9872 43.5161 58.9091C43.5161 58.8309 43.5226 58.7697 43.5356 58.7254C43.5461 58.6785 43.5656 58.6551 43.5943 58.6551V59.167ZM43.7506 60.015V59.5382H44.3524V60.015H43.7506ZM44.286 60.015V59.5382H44.8878V60.015H44.286ZM45.853 59.167V58.6551H47.846L47.6037 58.87V58.1939C47.6037 58.0663 47.5894 57.9673 47.5607 57.8969C47.5347 57.8266 47.4865 57.7771 47.4161 57.7484C47.3484 57.7198 47.2533 57.7054 47.1309 57.7054C47.024 57.7054 46.9198 57.7119 46.8182 57.725C46.7192 57.738 46.6411 57.7562 46.5837 57.7797L46.955 57.4358C46.9394 57.4931 46.9237 57.5674 46.9081 57.6585C46.8951 57.7497 46.8834 57.8461 46.8729 57.9477C46.8651 58.0467 46.8612 58.1431 46.8612 58.2369C46.8612 58.3229 46.8651 58.4141 46.8729 58.5105C46.8834 58.6069 46.8938 58.6928 46.9042 58.7684C46.9172 58.8413 46.9263 58.8908 46.9316 58.9169L46.3649 59.0771C46.3519 59.038 46.3375 58.9768 46.3219 58.8934C46.3063 58.8101 46.2933 58.7124 46.2828 58.6003C46.2724 58.4857 46.2672 58.3646 46.2672 58.2369C46.2672 58.1093 46.2724 57.9855 46.2828 57.8657C46.2959 57.7432 46.3115 57.6325 46.3297 57.5335C46.348 57.4345 46.3649 57.3563 46.3805 57.299C46.4431 57.2756 46.5421 57.2521 46.6775 57.2287C46.8156 57.2052 46.9667 57.1935 47.1309 57.1935C47.3705 57.1935 47.5685 57.2261 47.7249 57.2912C47.8838 57.3563 48.0023 57.4618 48.0805 57.6077C48.1612 57.7536 48.2016 57.9503 48.2016 58.1978V59.167H45.853ZM45.8569 59.167C45.8282 59.167 45.8087 59.1435 45.7983 59.0966C45.7852 59.0498 45.7787 58.9872 45.7787 58.9091C45.7787 58.8309 45.7852 58.7697 45.7983 58.7254C45.8087 58.6785 45.8282 58.6551 45.8569 58.6551V59.167ZM49.0887 59.167V58.6551H50.4955L50.1047 58.9911V58.401C50.1047 58.2213 50.0865 58.0819 50.05 57.9829C50.0136 57.8839 49.9536 57.8149 49.8703 57.7758C49.7869 57.7341 49.6723 57.7132 49.5264 57.7132H49.2098V57.2013H49.5264C49.7791 57.2013 49.9927 57.243 50.1673 57.3264C50.3418 57.4097 50.4747 57.54 50.5659 57.7172C50.6571 57.8917 50.7027 58.1197 50.7027 58.401V59.167H49.0887ZM52.2932 59.167V58.6551H52.727V59.167H52.2932ZM51.6992 59.167V56.4197H52.2932V59.167H51.6992ZM52.727 59.167V58.6551C52.7582 58.6551 52.7791 58.6785 52.7895 58.7254C52.7999 58.7697 52.8051 58.8309 52.8051 58.9091C52.8051 58.9872 52.7999 59.0498 52.7895 59.0966C52.7791 59.1435 52.7582 59.167 52.727 59.167ZM53.1943 59.167V58.6551H55.1561L54.9685 58.8075V58.3346C54.9685 58.2017 54.9542 58.0962 54.9255 58.0181C54.8994 57.9399 54.8604 57.8839 54.8083 57.85C54.7562 57.8162 54.6897 57.7992 54.609 57.7992H53.7492L53.3936 57.2873L53.6007 56.8926C53.6216 56.8535 53.645 56.8105 53.6711 56.7636C53.6997 56.7141 53.7362 56.6542 53.7805 56.5839C53.8274 56.5109 53.886 56.4197 53.9563 56.3103L54.4605 56.5917C54.3953 56.6855 54.3432 56.7649 54.3041 56.8301C54.2651 56.8952 54.2312 56.9512 54.2025 56.9981C54.1765 57.045 54.1517 57.0919 54.1283 57.1388L53.9876 57.4045L53.9094 57.2873H54.609C54.7783 57.2873 54.9229 57.3146 55.0427 57.3694C55.1626 57.4241 55.2603 57.5009 55.3358 57.5999C55.414 57.6963 55.4713 57.807 55.5078 57.9321C55.5442 58.0571 55.5625 58.1913 55.5625 58.3346V59.167H53.1943ZM53.1943 59.167C53.1656 59.167 53.1461 59.1435 53.1357 59.0966C53.1226 59.0498 53.1161 58.9872 53.1161 58.9091C53.1161 58.8309 53.1226 58.7697 53.1357 58.7254C53.1461 58.6785 53.1656 58.6551 53.1943 58.6551V59.167ZM56.6404 59.167V56.4197H57.2344V59.167H56.6404ZM56.6834 56.0836C56.6313 56.0211 56.5909 55.9612 56.5622 55.9039C56.5362 55.8466 56.5232 55.7866 56.5232 55.7241C56.5232 55.6277 56.5479 55.5431 56.5974 55.4701C56.6469 55.3946 56.712 55.3359 56.7928 55.2943C56.8736 55.25 56.9621 55.2278 57.0585 55.2278C57.1133 55.2278 57.168 55.2356 57.2227 55.2513C57.2774 55.2643 57.323 55.2838 57.3594 55.3099L57.2188 55.5717C57.1953 55.5587 57.1706 55.5496 57.1445 55.5444C57.1211 55.5391 57.0976 55.5365 57.0742 55.5365C57.0116 55.5365 56.9634 55.5535 56.9296 55.5873C56.8957 55.6212 56.8788 55.6642 56.8788 55.7163C56.8788 55.7476 56.8853 55.7775 56.8983 55.8062C56.9113 55.8348 56.9309 55.8635 56.9569 55.8922L56.6834 56.0836ZM56.4333 56.1227V55.8179H57.4415V56.1227H56.4333Z" fill="url(#paint12_linear_1165_1837)"/>
<defs>
<linearGradient id="paint0_linear_1165_1837" x1="64.6504" y1="18.2428" x2="19.5014" y2="18.2428" gradientUnits="userSpaceOnUse">
<stop stop-color="#FFD700"/>
<stop offset="0.425071" stop-color="#FFD700" stop-opacity="0.26"/>
<stop offset="1" stop-color="#FFD700" stop-opacity="0.9"/>
</linearGradient>
<linearGradient id="paint1_linear_1165_1837" x1="65.3338" y1="13.8556" x2="61.9096" y2="16.3172" gradientUnits="userSpaceOnUse">
<stop stop-color="#FFD700"/>
<stop offset="0.425071" stop-color="#FFD700" stop-opacity="0.26"/>
<stop offset="1" stop-color="#FFD700" stop-opacity="0.9"/>
</linearGradient>
<linearGradient id="paint2_linear_1165_1837" x1="60.9114" y1="8.16912" x2="57.537" y2="10.8914" gradientUnits="userSpaceOnUse">
<stop stop-color="#FFD700"/>
<stop offset="0.425071" stop-color="#FFD700" stop-opacity="0.26"/>
<stop offset="1" stop-color="#FFD700" stop-opacity="0.9"/>
</linearGradient>
<linearGradient id="paint3_linear_1165_1837" x1="55.6123" y1="3.61876" x2="52.3864" y2="6.84776" gradientUnits="userSpaceOnUse">
<stop stop-color="#FFD700"/>
<stop offset="0.425071" stop-color="#FFD700" stop-opacity="0.26"/>
<stop offset="1" stop-color="#FFD700" stop-opacity="0.9"/>
</linearGradient>
<linearGradient id="paint4_linear_1165_1837" x1="68.4314" y1="21.4165" x2="64.9742" y2="23.6233" gradientUnits="userSpaceOnUse">
<stop stop-color="#FFD700"/>
<stop offset="0.425071" stop-color="#FFD700" stop-opacity="0.26"/>
<stop offset="1" stop-color="#FFD700" stop-opacity="0.9"/>
</linearGradient>
<linearGradient id="paint5_linear_1165_1837" x1="48.6772" y1="0.653895" x2="47.1816" y2="5.85067" gradientUnits="userSpaceOnUse">
<stop stop-color="#FFD700"/>
<stop offset="0.425071" stop-color="#FFD700" stop-opacity="0.26"/>
<stop offset="1" stop-color="#FFD700" stop-opacity="0.9"/>
</linearGradient>
<linearGradient id="paint6_linear_1165_1837" x1="41.6022" y1="0.105263" x2="42.8948" y2="5.39582" gradientUnits="userSpaceOnUse">
<stop stop-color="#FFD700"/>
<stop offset="0.425071" stop-color="#FFD700" stop-opacity="0.26"/>
<stop offset="1" stop-color="#FFD700" stop-opacity="0.9"/>
</linearGradient>
<linearGradient id="paint7_linear_1165_1837" x1="18.4771" y1="14.4799" x2="21.9115" y2="16.8732" gradientUnits="userSpaceOnUse">
<stop stop-color="#FFD700"/>
<stop offset="0.425071" stop-color="#FFD700" stop-opacity="0.26"/>
<stop offset="1" stop-color="#FFD700" stop-opacity="0.9"/>
</linearGradient>
<linearGradient id="paint8_linear_1165_1837" x1="15.8824" y1="21.6547" x2="19.3168" y2="24.0479" gradientUnits="userSpaceOnUse">
<stop stop-color="#FFD700"/>
<stop offset="0.425071" stop-color="#FFD700" stop-opacity="0.26"/>
<stop offset="1" stop-color="#FFD700" stop-opacity="0.9"/>
</linearGradient>
<linearGradient id="paint9_linear_1165_1837" x1="22.6948" y1="8.79346" x2="26.0272" y2="11.6865" gradientUnits="userSpaceOnUse">
<stop stop-color="#FFD700"/>
<stop offset="0.425071" stop-color="#FFD700" stop-opacity="0.26"/>
<stop offset="1" stop-color="#FFD700" stop-opacity="0.9"/>
</linearGradient>
<linearGradient id="paint10_linear_1165_1837" x1="27.7116" y1="5.0193" x2="31.0433" y2="7.91465" gradientUnits="userSpaceOnUse">
<stop stop-color="#FFD700"/>
<stop offset="0.425071" stop-color="#FFD700" stop-opacity="0.26"/>
<stop offset="1" stop-color="#FFD700" stop-opacity="0.9"/>
</linearGradient>
<linearGradient id="paint11_linear_1165_1837" x1="34.7338" y1="1.68994" x2="37.585" y2="5.66882" gradientUnits="userSpaceOnUse">
<stop stop-color="#FFD700"/>
<stop offset="0.425071" stop-color="#FFD700" stop-opacity="0.26"/>
<stop offset="1" stop-color="#FFD700" stop-opacity="0.9"/>
</linearGradient>
<linearGradient id="paint12_linear_1165_1837" x1="26.7525" y1="63.9891" x2="61.7442" y2="63.9891" gradientUnits="userSpaceOnUse">
<stop stop-color="#267A95"/>
<stop offset="0.931375" stop-color="#50CA3D"/>
</linearGradient>
</defs>
</svg>
