<svg width="28" height="21" viewBox="0 0 28 21" fill="none" xmlns="http://www.w3.org/2000/svg">
<rect x="0.0742188" y="0.263672" width="26.6153" height="19.831" rx="2.08747" fill="white"/>
<path d="M6.76009 20.0556V9.87986L3.5111 6.99276L0.597656 5.39062V18.2599C0.597656 19.2535 1.42645 20.0556 2.44643 20.0556H6.76009Z" fill="#4285F4"/>
<path d="M21.5488 20.0555H25.8625C26.8855 20.0555 27.7113 19.2504 27.7113 18.2598V5.39062L24.4113 7.22568L21.5488 9.87976V20.0555Z" fill="#34A853"/>
<path d="M6.76046 9.88001L6.31836 5.90403L6.76046 2.09863L14.1553 7.4858L21.5502 2.09863L22.0447 5.69858L21.5502 9.88001L14.1553 15.2672L6.76046 9.88001Z" fill="#EA4335"/>
<path d="M21.5488 2.09862V9.87999L27.7113 5.39075V2.99644C27.7113 0.775797 25.1015 -0.490132 23.2744 0.841639L21.5488 2.09862Z" fill="#FBBC04"/>
<path d="M0.597656 5.3908L3.43188 7.45559L6.76009 9.88004V2.09866L5.0345 0.841686C3.20426 -0.490188 0.597656 0.775844 0.597656 2.99639V5.3907V5.3908Z" fill="#C5221F"/>
</svg>
