<svg width="30" height="34" viewBox="0 0 30 34" fill="none" xmlns="http://www.w3.org/2000/svg">
<path d="M6.77637 19.3865H17.6176V21.8099H6.77637V19.3865ZM6.77637 13.3281H23.0382V15.7515H6.77637V13.3281ZM6.77637 25.4449H13.5521V27.8683H6.77637V25.4449Z" fill="#0D6784"/>
<path d="M27.1031 3.63503H23.0376V2.42336C23.0376 1.78064 22.7521 1.16425 22.2438 0.709785C21.7355 0.255317 21.0461 0 20.3273 0H9.48608C8.76726 0 8.07788 0.255317 7.5696 0.709785C7.06132 1.16425 6.77577 1.78064 6.77577 2.42336V3.63503H2.71031C1.99149 3.63503 1.30211 3.89035 0.793831 4.34482C0.285549 4.79929 0 5.41568 0 6.05839V31.5036C0 32.1463 0.285549 32.7627 0.793831 33.2172C1.30211 33.6717 1.99149 33.927 2.71031 33.927H27.1031C27.8219 33.927 28.5113 33.6717 29.0195 33.2172C29.5278 32.7627 29.8134 32.1463 29.8134 31.5036V6.05839C29.8134 5.41568 29.5278 4.79929 29.0195 4.34482C28.5113 3.89035 27.8219 3.63503 27.1031 3.63503ZM9.48608 2.42336H20.3273V7.27007H9.48608V2.42336ZM27.1031 31.5036H2.71031V6.05839H6.77577V9.69343H23.0376V6.05839H27.1031V31.5036Z" fill="#0D6784"/>
</svg>
