<svg width="33" height="27" viewBox="0 0 33 27" fill="none" xmlns="http://www.w3.org/2000/svg">
<path d="M30.197 1H2.86364C2.36937 1 1.89535 1.19085 1.54585 1.53057C1.19635 1.87028 1 2.33104 1 2.81147V24.5491C1 25.0295 1.19635 25.4903 1.54585 25.83C1.89535 26.1697 2.36937 26.3606 2.86364 26.3606H4.94314C5.06066 26.3604 5.17572 26.3278 5.27496 26.2667C5.3742 26.2055 5.45355 26.1182 5.50379 26.0149C6.15812 24.6713 7.19148 23.536 8.48366 22.7409C9.77584 21.9458 11.2737 21.5238 12.803 21.5238C14.3323 21.5238 15.8302 21.9458 17.1224 22.7409C18.4146 23.536 19.4479 24.6713 20.1023 26.0149C20.1525 26.1182 20.2319 26.2055 20.3311 26.2667C20.4303 26.3278 20.5454 26.3604 20.6629 26.3606H30.197C30.6912 26.3606 31.1653 26.1697 31.5148 25.83C31.8643 25.4903 32.0606 25.0295 32.0606 24.5491V2.81147C32.0606 2.33104 31.8643 1.87028 31.5148 1.53057C31.1653 1.19085 30.6912 1 30.197 1ZM30.8182 24.5491C30.8182 24.7093 30.7527 24.8628 30.6362 24.9761C30.5197 25.0893 30.3617 25.1529 30.197 25.1529H21.0465C19.9043 23.0668 17.9733 21.4935 15.6606 20.7647C16.7132 20.1563 17.5311 19.2288 17.9888 18.1248C18.4465 17.0207 18.5186 15.8011 18.194 14.6534C17.8694 13.5057 17.1662 12.4932 16.1923 11.7717C15.2183 11.0501 14.0276 10.6593 12.803 10.6593C11.5784 10.6593 10.3877 11.0501 9.4138 11.7717C8.43987 12.4932 7.73661 13.5057 7.41206 14.6534C7.0875 15.8011 7.1596 17.0207 7.61728 18.1248C8.07496 19.2288 8.8929 20.1563 9.94545 20.7647C7.63279 21.4935 5.70172 23.0668 4.55955 25.1529H2.86364C2.69888 25.1529 2.54087 25.0893 2.42437 24.9761C2.30787 24.8628 2.24242 24.7093 2.24242 24.5491V2.81147C2.24242 2.65133 2.30787 2.49774 2.42437 2.3845C2.54087 2.27126 2.69888 2.20765 2.86364 2.20765H30.197C30.3617 2.20765 30.5197 2.27126 30.6362 2.3845C30.7527 2.49774 30.8182 2.65133 30.8182 2.81147V24.5491ZM12.803 20.3224C11.943 20.3224 11.1022 20.0745 10.3871 19.61C9.67204 19.1456 9.11468 18.4854 8.78555 17.7131C8.45643 16.9408 8.37031 16.0909 8.5381 15.271C8.70589 14.4511 9.12004 13.6979 9.72819 13.1068C10.3363 12.5157 11.1112 12.1131 11.9547 11.95C12.7982 11.7869 13.6725 11.8707 14.4671 12.1906C15.2617 12.5105 15.9408 13.0522 16.4187 13.7473C16.8965 14.4424 17.1515 15.2596 17.1515 16.0956C17.1515 16.6507 17.039 17.2003 16.8205 17.7131C16.602 18.2259 16.2817 18.6919 15.8779 19.0844C15.4741 19.4769 14.9947 19.7882 14.4671 20.0006C13.9395 20.213 13.3741 20.3224 12.803 20.3224ZM27.0909 6.43441V20.9262C27.0909 21.0863 27.0255 21.2399 26.909 21.3531C26.7925 21.4664 26.6345 21.53 26.4697 21.53H23.9848C23.8201 21.53 23.6621 21.4664 23.5456 21.3531C23.4291 21.2399 23.3636 21.0863 23.3636 20.9262C23.3636 20.766 23.4291 20.6124 23.5456 20.4992C23.6621 20.386 23.8201 20.3224 23.9848 20.3224H25.8485V7.03824H7.21212V8.84971C7.21212 9.00985 7.14667 9.16343 7.03017 9.27667C6.91367 9.38991 6.75566 9.45353 6.59091 9.45353C6.42615 9.45353 6.26815 9.38991 6.15165 9.27667C6.03515 9.16343 5.9697 9.00985 5.9697 8.84971V6.43441C5.9697 6.27427 6.03515 6.12068 6.15165 6.00744C6.26815 5.8942 6.42615 5.83059 6.59091 5.83059H26.4697C26.6345 5.83059 26.7925 5.8942 26.909 6.00744C27.0255 6.12068 27.0909 6.27427 27.0909 6.43441Z" stroke="#0D6784" stroke-width="1.1"/>
</svg>
