<svg width="31" height="30" viewBox="0 0 31 30" fill="none" xmlns="http://www.w3.org/2000/svg">
<path d="M1.22954 14.4946C1.22884 16.9598 1.88426 19.3669 3.13051 21.4886L1.11035 28.7377L8.65869 26.7925C10.7465 27.9095 13.0857 28.4948 15.4627 28.495H15.469C23.3162 28.495 29.7041 22.2193 29.7074 14.5056C29.7089 10.7678 28.2292 7.25297 25.5406 4.60863C22.8526 1.9645 19.2775 0.507565 15.4684 0.505859C7.62026 0.505859 1.23289 6.78124 1.22965 14.4946" fill="url(#paint0_linear_825_1281)"/>
<path d="M0.721472 14.4905C0.720662 17.0444 1.39956 19.5376 2.69025 21.7352L0.597656 29.2442L8.41665 27.2293C10.571 28.3838 12.9967 28.9924 15.4649 28.9933H15.4712C23.6 28.9933 30.2173 22.4919 30.2208 14.5021C30.2222 10.6299 28.6892 6.98878 25.9046 4.2497C23.1197 1.51096 19.4168 0.00159216 15.4712 0C7.34108 0 0.724827 6.50056 0.721587 14.4905H0.721472ZM5.37785 21.3568L5.0859 20.9013C3.85863 18.9834 3.21085 16.7671 3.21178 14.4914C3.21444 7.85037 8.71369 2.44738 15.4759 2.44738C18.7506 2.44874 21.8282 3.70336 24.1429 5.97969C26.4576 8.25625 27.7313 11.2825 27.7305 14.5012C27.7274 21.1422 22.2281 26.5458 15.4712 26.5458H15.4664C13.2663 26.5447 11.1085 25.964 9.22678 24.8667L8.77896 24.6057L4.13901 25.8013L5.37785 21.3566V21.3568Z" fill="url(#paint1_linear_825_1281)"/>
<path d="M11.7838 8.43309C11.5077 7.83 11.2171 7.81783 10.9546 7.80726C10.7396 7.79816 10.4938 7.79884 10.2482 7.79884C10.0025 7.79884 9.60312 7.88971 9.26558 8.25192C8.92769 8.61448 7.97559 9.49062 7.97559 11.2726C7.97559 13.0547 9.29624 14.7768 9.48035 15.0187C9.66468 15.2602 12.0299 19.034 15.7758 20.4858C18.889 21.6924 19.5226 21.4524 20.1982 21.3919C20.874 21.3316 22.3788 20.516 22.6858 19.6702C22.993 18.8245 22.993 18.0997 22.9009 17.9482C22.8088 17.7973 22.563 17.7066 22.1944 17.5256C21.8258 17.3444 20.0139 16.4681 19.6761 16.3473C19.3382 16.2265 19.0926 16.1662 18.8468 16.5289C18.601 16.891 17.8953 17.7066 17.6802 17.9482C17.4653 18.1903 17.2502 18.2204 16.8817 18.0393C16.5129 17.8575 15.3261 17.4755 13.9179 16.2417C12.8223 15.2816 12.0827 14.0961 11.8677 13.7334C11.6527 13.3713 11.8446 13.175 12.0294 12.9945C12.195 12.8322 12.3981 12.5716 12.5826 12.3601C12.7663 12.1486 12.8276 11.9977 12.9505 11.7561C13.0735 11.5144 13.012 11.3028 12.92 11.1217C12.8276 10.9405 12.1115 9.14933 11.7838 8.4332" fill="white"/>
<defs>
<linearGradient id="paint0_linear_825_1281" x1="15.4089" y1="28.7377" x2="15.4089" y2="0.505859" gradientUnits="userSpaceOnUse">
<stop stop-color="#1FAF38"/>
<stop offset="1" stop-color="#60D669"/>
</linearGradient>
<linearGradient id="paint1_linear_825_1281" x1="15.4092" y1="29.2442" x2="15.4092" y2="0" gradientUnits="userSpaceOnUse">
<stop stop-color="#F9F9F9"/>
<stop offset="1" stop-color="white"/>
</linearGradient>
</defs>
</svg>
