<svg width="41" height="39" viewBox="0 0 41 39" fill="none" xmlns="http://www.w3.org/2000/svg">
<path d="M20.6878 7.90446C14.2483 7.90446 9.01344 13.0493 9.00458 19.3781C9.00458 21.5458 9.62462 23.6612 10.7938 25.4806L11.0684 25.9158L9.89035 30.1467L14.3103 29.0063L14.7355 29.2587C16.5247 30.3034 18.5797 30.8605 20.679 30.8605H20.6878C27.1185 30.8605 32.4951 25.7156 32.4951 19.3868C32.4951 16.3225 31.1487 13.4411 28.9432 11.2734C26.7288 9.0971 23.8057 7.90446 20.6878 7.90446ZM27.5525 24.3054C27.2602 25.115 25.8607 25.8462 25.1875 25.942C24.0715 26.1074 23.2034 26.0203 20.9801 25.0801C17.4636 23.5828 15.1607 20.1007 14.9835 19.8743C14.8064 19.648 13.5486 18.0027 13.5486 16.3051C13.5486 14.6076 14.452 13.7719 14.7798 13.4237C15.0987 13.0754 15.4795 12.9884 15.7187 12.9884C15.949 12.9884 16.1881 12.9884 16.3919 12.9971C16.6045 13.0058 16.8968 12.9188 17.1802 13.5891C17.4725 14.2768 18.1723 15.9743 18.2608 16.1484C18.3494 16.3225 18.4114 16.5228 18.2874 16.7491C17.6142 18.0723 16.8968 18.0201 17.2599 18.6295C18.6151 20.919 19.9704 21.7112 22.0342 22.7297C22.3885 22.9038 22.5922 22.8777 22.796 22.6426C22.9997 22.4163 23.6729 21.6328 23.9032 21.2933C24.1335 20.9451 24.3726 21.006 24.6915 21.1192C25.0104 21.2324 26.7376 22.0681 27.0919 22.2422C27.4462 22.4163 27.6765 22.5033 27.7651 22.6426C27.8448 22.808 27.8448 23.5045 27.5525 24.3054ZM36.2773 0H5.09836C2.75108 0 0.84668 1.87165 0.84668 4.17857V34.8214C0.84668 37.1283 2.75108 39 5.09836 39H36.2773C38.6246 39 40.529 37.1283 40.529 34.8214V4.17857C40.529 1.87165 38.6246 0 36.2773 0ZM20.679 33.1848C18.3228 33.1848 16.011 32.6016 13.9649 31.5047L6.51558 33.4286L8.50855 26.2728C7.27734 24.1835 6.63073 21.8069 6.63073 19.3694C6.63959 11.7609 12.9374 5.57143 20.679 5.57143C24.4346 5.57143 27.96 7.00781 30.6173 9.61942C33.2657 12.231 34.8601 15.6958 34.8601 19.3868C34.8601 26.9953 28.4206 33.1848 20.679 33.1848Z" fill="#E3F8F5"/>
</svg>
