<svg width="36" height="36" viewBox="0 0 36 36" fill="none" xmlns="http://www.w3.org/2000/svg">
<path d="M34.56 -0.000976562H1.44C0.6435 -0.000976562 0 0.642523 0 1.43902V34.559C0 35.3555 0.6435 35.999 1.44 35.999H34.56C35.3565 35.999 36 35.3555 36 34.559V1.43902C36 0.642523 35.3565 -0.000976562 34.56 -0.000976562ZM27.6885 13.0355C27.702 13.247 27.702 13.4675 27.702 13.6835C27.702 20.2895 22.671 27.899 13.4775 27.899C10.6425 27.899 8.0145 27.0755 5.8005 25.658C6.2055 25.703 6.5925 25.721 7.0065 25.721C9.3465 25.721 11.4975 24.929 13.212 23.588C11.016 23.543 9.171 22.103 8.541 20.123C9.3105 20.2355 10.0035 20.2355 10.7955 20.033C9.66477 19.8033 8.64844 19.1892 7.91917 18.295C7.18991 17.4009 6.79269 16.2819 6.795 15.128V15.065C7.4565 15.4385 8.235 15.668 9.0495 15.6995C8.36479 15.2432 7.80326 14.625 7.4147 13.8997C7.02614 13.1743 6.82256 12.3644 6.822 11.5415C6.822 10.61 7.065 9.75952 7.5015 9.02152C8.75656 10.5665 10.3227 11.8302 12.0981 12.7303C13.8735 13.6304 15.8184 14.1468 17.8065 14.246C17.1 10.8485 19.638 8.09902 22.689 8.09902C24.129 8.09902 25.425 8.70202 26.3385 9.67402C27.468 9.46252 28.548 9.03952 29.511 8.47252C29.1375 9.62902 28.3545 10.6055 27.315 11.222C28.323 11.114 29.295 10.835 30.195 10.4435C29.5155 11.4425 28.665 12.329 27.6885 13.0355Z" fill="#E3F8F5"/>
</svg>
